<?xml version="1.0" encoding="UTF-8" standalone="no"?> <svg xmlns="http://www.w3.org/2000/svg" version="1.0" width="1600.000000pt" height="458.000000pt" viewBox="0 0 1600.000000 458.000000" preserveAspectRatio="xMidYMid meet"><g transform="translate(0.000000,458.000000) scale(0.100000,-0.100000)" fill="#000000" stroke="none"><path d="M2426 4439 c-15 -12 -26 -30 -26 -45 0 -30 41 -74 70 -74 27 0 70 43 70 70 0 26 -43 70 -68 70 -11 0 -31 -9 -46 -21z"></path><path d="M2115 4155 c-36 -35 -35 -96 1 -124 60 -47 144 -6 144 70 0 11 -13 34 -29 50 -38 37 -82 39 -116 4z"></path><path d="M1822 3894 c-28 -19 -52 -65 -52 -99 0 -40 57 -95 100 -97 53 -2 77 10 100 46 31 50 26 92 -14 132 -27 27 -42 34 -73 34 -21 0 -49 -7 -61 -16z"></path><path d="M5667 3873 c-4 -3 -7 -386 -7 -850 l0 -843 633 2 632 3 0 125 0 125 -477 3 -478 2 0 240 0 240 410 0 411 0 -3 123 -3 122 -407 3 -408 2 0 225 0 225 460 0 460 0 0 130 0 130 -608 0 c-335 0 -612 -3 -615 -7z"></path><path d="M7245 3868 c-3 -7 -4 -389 -3 -848 l3 -835 145 0 145 0 0 845 0 845 -143 3 c-108 2 -144 0 -147 -10z"></path><path d="M2435 3818 c-71 -84 48 -186 126 -109 36 36 37 70 3 110 -37 44 -91 44 -129 -1z"></path><path d="M15100 3610 l0 -150 -105 0 -105 0 0 -115 0 -115 105 0 105 0 0 -327 c0 -401 10 -476 73 -569 40 -60 98 -105 174 -135 51 -21 75 -24 198 -24 133 0 143 2 202 29 35 16 67 34 73 41 6 8 -2 39 -27 101 -20 49 -39 93 -43 97 -3 4 -26 -1 -51 -12 -54 -25 -166 -28 -209 -6 -16 8 -42 32 -57 52 l-28 36 -3 358 -3 359 173 2 173 3 3 113 3 112 -175 0 -175 0 -3 148 -3 147 -147 3 -148 3 0 -151z"></path><path d="M1519 3613 c-37 -23 -59 -64 -59 -112 0 -33 7 -49 34 -79 32 -34 38 -37 91 -37 53 0 59 3 91 37 27 30 34 46 34 79 0 76 -53 129 -127 129 -21 0 -50 -8 -64 -17z"></path><path d="M2163 3570 c-28 -12 -63 -67 -63 -100 0 -37 33 -85 70 -100 50 -21 109 3 134 53 16 34 17 44 7 78 -19 63 -86 94 -148 69z"></path><path d="M8368 3480 c-185 -33 -332 -118 -425 -244 -63 -85 -87 -137 -113 -241 -38 -153 -19 -341 50 -475 78 -154 215 -263 400 -322 66 -20 95 -23 240 -23 183 0 258 16 366 76 57 33 144 105 144 120 0 6 -32 47 -72 92 -39 45 -72 84 -74 86 -2 2 -19 -10 -39 -28 -54 -47 -123 -78 -215 -97 -248 -50 -475 75 -524 289 l-6 27 511 0 512 0 -6 128 c-4 100 -10 142 -30 198 -51 145 -160 276 -285 342 -117 61 -313 94 -434 72z m284 -268 c98 -48 170 -142 191 -249 l7 -33 -375 0 -374 0 5 33 c22 118 103 213 223 264 48 20 70 23 156 21 91 -3 107 -6 167 -36z"></path><path d="M10008 3480 c-116 -21 -214 -68 -285 -135 l-43 -42 0 84 0 83 -140 0 -140 0 0 -645 0 -645 145 0 145 0 0 341 c0 200 5 370 11 412 20 130 85 223 188 271 37 16 66 21 146 21 92 0 104 -2 152 -29 53 -29 88 -71 120 -141 16 -36 19 -84 23 -455 l5 -415 145 0 145 0 5 395 c5 359 7 399 24 440 55 129 149 198 286 207 187 13 292 -73 320 -264 5 -37 10 -229 10 -425 l0 -358 146 0 145 0 -3 448 -4 447 -25 76 c-75 223 -239 332 -499 333 -169 0 -316 -55 -430 -160 l-56 -53 -35 45 c-46 60 -137 119 -218 144 -77 23 -215 33 -283 20z"></path><path d="M12394 3481 c-251 -40 -439 -194 -525 -431 -21 -58 -23 -82 -23 -225 0 -151 1 -164 27 -229 80 -202 220 -330 437 -398 66 -20 95 -23 240 -23 174 0 233 12 345 68 45 23 133 86 154 110 16 20 18 16 -78 124 l-63 72 -45 -34 c-62 -47 -119 -73 -199 -90 -87 -18 -131 -18 -219 0 -96 20 -168 60 -225 122 -44 48 -90 139 -90 178 0 13 69 15 510 15 l510 0 0 93 c0 369 -250 633 -615 651 -49 3 -113 1 -141 -3z m278 -264 c73 -36 150 -119 177 -192 39 -104 74 -95 -350 -95 l-371 0 7 38 c15 84 72 169 149 221 71 49 120 61 231 58 85 -3 109 -7 157 -30z"></path><path d="M14070 3484 c-137 -24 -240 -69 -315 -137 l-50 -44 0 81 0 81 -137 3 -138 3 0 -646 0 -645 145 0 145 0 0 366 c0 404 5 447 61 536 34 53 79 90 147 121 39 18 65 22 157 22 103 0 113 -2 163 -29 67 -38 109 -90 133 -167 17 -55 19 -97 19 -455 l0 -394 145 0 145 0 0 417 c0 265 -4 440 -11 482 -42 242 -228 394 -494 406 -49 2 -101 2 -115 -1z"></path><path d="M1222 3343 c-69 -34 -100 -121 -67 -192 52 -116 210 -119 265 -6 11 23 20 52 20 65 0 44 -38 105 -79 128 -46 26 -93 28 -139 5z"></path><path d="M1874 3299 c-50 -14 -77 -51 -82 -113 -4 -50 -2 -56 31 -92 31 -34 39 -38 85 -38 61 0 98 22 119 72 41 99 -49 201 -153 171z"></path><path d="M2481 3236 c-51 -29 -68 -112 -31 -159 66 -83 190 -38 190 70 0 83 -85 130 -159 89z"></path><path d="M3117 3189 c-11 -6 -25 -26 -33 -45 -12 -29 -12 -39 0 -67 42 -101 189 -39 154 65 -17 48 -78 72 -121 47z"></path><path d="M909 3057 c-53 -36 -79 -82 -79 -142 0 -93 71 -165 163 -165 126 0 204 129 145 240 -46 85 -155 117 -229 67z"></path><path d="M1542 3010 c-130 -80 -74 -275 79 -273 86 1 139 59 139 152 0 39 -6 56 -26 81 -52 61 -130 78 -192 40z"></path><path d="M2161 2944 c-40 -34 -56 -89 -39 -139 18 -53 58 -80 118 -80 60 0 100 27 118 80 28 85 -29 165 -118 165 -37 0 -55 -6 -79 -26z"></path><path d="M2833 2918 c-75 -20 -100 -123 -44 -179 67 -67 181 -19 181 76 0 72 -67 122 -137 103z"></path><path d="M643 2799 c-38 -11 -100 -69 -114 -106 -5 -13 -9 -44 -9 -69 0 -181 225 -252 335 -106 29 39 33 145 7 192 -40 73 -140 114 -219 89z"></path><path d="M1238 2730 c-64 -34 -96 -110 -77 -182 34 -136 201 -173 290 -65 44 55 44 153 -1 209 -44 57 -142 74 -212 38z"></path><path d="M1863 2681 c-89 -56 -84 -209 8 -257 46 -24 131 -15 165 17 73 68 72 161 0 228 -37 35 -127 41 -173 12z"></path><path d="M2534 2643 c-12 -2 -36 -20 -55 -39 -29 -30 -34 -42 -34 -84 0 -61 27 -100 82 -119 51 -18 87 -9 130 34 27 27 33 40 33 77 0 23 -6 54 -13 67 -23 46 -88 75 -143 64z"></path><path d="M3155 2590 c-43 -18 -70 -59 -69 -108 1 -61 44 -102 105 -102 53 0 109 51 109 99 0 82 -76 140 -145 111z"></path><path d="M3790 2533 c-91 -35 -72 -163 25 -163 74 0 114 89 63 138 -25 23 -65 34 -88 25z"></path><path d="M318 2496 c-56 -20 -85 -42 -115 -86 -55 -84 -38 -198 40 -265 70 -60 141 -69 224 -30 89 41 138 143 113 235 -15 57 -79 124 -137 144 -56 19 -76 19 -125 2z"></path><path d="M4396 2469 c-35 -28 -35 -70 0 -98 15 -12 35 -21 46 -21 25 0 68 44 68 70 0 26 -43 70 -68 70 -11 0 -31 -9 -46 -21z"></path><path d="M953 2456 c-73 -34 -106 -87 -106 -166 0 -94 56 -160 156 -184 64 -15 165 42 193 111 18 41 18 105 0 146 -24 59 -111 117 -176 117 -8 0 -38 -11 -67 -24z"></path><path d="M1592 2413 c-63 -22 -102 -79 -102 -150 0 -64 18 -103 62 -137 66 -49 158 -43 215 16 56 58 67 121 34 186 -24 47 -50 70 -98 88 -47 16 -57 16 -111 -3z"></path><path d="M2245 2370 c-76 -17 -115 -68 -115 -148 0 -43 5 -57 30 -85 39 -45 79 -61 137 -54 39 4 54 12 84 44 50 53 57 100 27 161 -32 65 -97 98 -163 82z"></path><path d="M2835 2301 c-64 -38 -84 -115 -46 -177 19 -31 74 -64 106 -64 32 0 87 33 106 64 67 110 -58 243 -166 177z"></path><path d="M3463 2250 c-39 -23 -53 -48 -53 -94 0 -73 82 -124 151 -95 35 14 69 62 69 97 0 56 -56 112 -112 112 -13 0 -37 -9 -55 -20z"></path><path d="M4093 2195 c-47 -33 -44 -118 6 -144 57 -31 131 9 131 71 0 64 -85 110 -137 73z"></path><path d="M636 2165 c-148 -53 -183 -252 -61 -353 133 -109 335 -13 335 159 0 63 -21 108 -70 153 -59 53 -130 68 -204 41z"></path><path d="M1280 2128 c-142 -73 -147 -258 -7 -329 57 -30 141 -23 191 15 82 62 100 178 40 254 -35 43 -105 82 -149 82 -17 0 -51 -10 -75 -22z"></path><path d="M1925 2088 c-62 -22 -115 -94 -115 -158 0 -33 21 -82 49 -114 42 -48 138 -64 198 -32 67 34 105 117 84 186 -29 98 -125 150 -216 118z"></path><path d="M2518 2015 c-50 -34 -76 -100 -59 -155 35 -118 170 -151 254 -61 34 37 37 45 37 97 0 54 -2 59 -44 100 -40 41 -47 44 -97 44 -41 0 -63 -6 -91 -25z"></path><path d="M3163 1970 c-111 -67 -63 -230 68 -230 42 0 53 5 84 35 30 30 35 42 35 81 0 107 -99 168 -187 114z"></path><path d="M3794 1922 c-76 -48 -63 -168 22 -191 80 -22 150 34 140 113 -9 78 -96 119 -162 78z"></path><path d="M14036 1859 c-33 -26 -37 -86 -6 -114 51 -47 134 -9 134 61 0 67 -72 97 -128 53z"></path><path d="M13682 1403 l3 -458 58 -3 57 -3 0 461 0 460 -60 0 -60 0 2 -457z"></path><path d="M960 1839 c-171 -69 -176 -313 -8 -384 154 -64 309 62 283 230 -8 57 -79 140 -133 155 -46 12 -109 12 -142 -1z"></path><path d="M1610 1804 c-69 -30 -110 -93 -110 -169 0 -184 237 -253 339 -98 47 72 40 148 -19 215 -56 65 -136 84 -210 52z"></path><path d="M2230 1748 c-110 -59 -119 -207 -17 -282 42 -31 151 -30 192 2 49 39 65 71 65 133 0 131 -126 208 -240 147z"></path><path d="M2875 1706 c-55 -24 -95 -85 -95 -142 0 -39 36 -100 73 -123 65 -40 161 -20 202 43 47 72 18 178 -59 215 -49 24 -79 26 -121 7z"></path><path d="M3488 1642 c-103 -63 -54 -232 67 -232 38 0 52 6 83 34 34 32 37 38 37 91 0 53 -3 59 -37 91 -31 28 -46 34 -80 34 -24 0 -55 -8 -70 -18z"></path><path d="M5715 1581 c-28 -10 -60 -23 -70 -29 -50 -28 -50 -27 -21 -77 25 -42 30 -45 44 -32 43 36 97 51 184 52 72 0 91 -3 115 -21 35 -26 63 -79 63 -121 l0 -31 -152 -4 c-141 -3 -156 -5 -198 -28 -137 -77 -132 -251 9 -323 99 -50 256 -33 329 35 l22 21 0 -41 0 -42 55 0 55 0 0 238 c0 228 -1 239 -24 287 -28 60 -56 87 -116 114 -61 28 -221 29 -295 2z m315 -393 c0 -59 -29 -107 -83 -135 -46 -24 -164 -24 -200 0 -35 22 -50 62 -42 104 11 60 66 79 233 82 l92 1 0 -52z"></path><path d="M6360 1270 l0 -330 168 0 c93 0 195 5 228 11 119 21 178 82 177 181 -1 62 -28 108 -79 134 l-41 20 28 17 c44 25 69 74 69 136 0 48 -3 57 -38 91 -58 59 -111 70 -329 70 l-183 0 0 -330z m411 201 c21 -25 25 -71 9 -102 -21 -38 -62 -49 -185 -49 l-115 0 0 93 0 92 136 -5 c128 -5 137 -6 155 -29z m6 -267 c19 -14 29 -32 31 -54 9 -91 -25 -110 -202 -110 l-126 0 0 96 0 96 134 -4 c118 -3 138 -6 163 -24z"></path><path d="M7010 1545 l0 -55 120 0 120 0 0 -275 0 -276 58 3 57 3 3 272 2 272 118 3 117 3 0 50 0 50 -297 3 -298 2 0 -55z"></path><path d="M7825 1572 c-70 -33 -122 -84 -156 -150 -21 -41 -24 -61 -24 -152 0 -95 3 -110 27 -156 58 -109 171 -174 304 -174 139 0 252 69 309 188 24 48 28 70 28 142 0 107 -28 176 -99 244 -65 63 -131 86 -242 86 -75 0 -95 -4 -147 -28z m262 -102 c53 -31 80 -68 98 -136 33 -128 -28 -245 -149 -284 -66 -21 -173 7 -217 56 -59 67 -77 188 -40 270 21 45 81 100 126 114 47 15 139 5 182 -20z"></path><path d="M8490 1270 l0 -330 55 0 55 0 0 275 0 275 185 0 185 0 2 -272 3 -273 58 -3 57 -3 0 331 0 330 -300 0 -300 0 0 -330z"></path><path d="M9420 1591 c-40 -13 -118 -52 -129 -64 -6 -8 -1 -26 15 -53 l25 -42 57 31 c51 28 66 32 142 32 66 0 92 -4 116 -19 37 -22 64 -73 64 -120 l0 -34 -152 -4 c-134 -3 -158 -6 -195 -25 -78 -42 -115 -121 -94 -202 17 -63 44 -96 103 -125 97 -48 254 -31 326 36 l22 21 0 -41 0 -42 55 0 55 0 0 243 c0 212 -3 247 -19 282 -20 46 -79 101 -127 121 -36 15 -220 18 -264 5z m290 -407 c0 -52 -3 -59 -38 -94 -44 -45 -106 -65 -174 -57 -90 11 -134 69 -104 141 20 48 70 62 229 65 l87 1 0 -56z"></path><path d="M10045 1588 c-3 -7 -4 -209 -3 -448 l3 -435 58 -3 57 -3 0 172 0 173 33 -31 c17 -18 52 -41 77 -52 59 -27 175 -28 244 -4 63 23 140 92 174 157 24 46 26 62 27 156 0 92 -3 111 -25 154 -34 66 -91 123 -153 152 -43 20 -68 24 -143 24 -78 0 -98 -4 -140 -25 -27 -14 -59 -37 -71 -51 l-23 -25 0 50 0 51 -55 0 c-35 0 -57 -5 -60 -12z m460 -126 c85 -58 119 -192 74 -292 -25 -56 -44 -77 -91 -101 -182 -93 -376 76 -314 273 35 109 116 163 231 153 43 -4 71 -13 100 -33z"></path><path d="M10890 1270 l0 -330 60 0 60 0 0 140 0 140 68 0 68 0 110 -139 109 -140 68 0 c37 -1 67 2 67 6 0 3 -11 20 -24 37 -13 17 -72 92 -129 166 l-105 134 31 40 c150 189 207 262 207 269 0 4 -28 7 -62 5 l-62 -3 -105 -137 -105 -138 -68 0 -68 0 0 140 0 140 -60 0 -60 0 0 -330z"></path><path d="M12201 1579 c-71 -31 -125 -82 -161 -151 -31 -58 -34 -70 -34 -153 -1 -77 3 -98 25 -145 56 -119 156 -182 297 -188 107 -5 181 20 251 87 79 74 95 117 96 241 0 95 -3 110 -27 155 -35 66 -90 118 -158 149 -73 34 -220 37 -289 5z m263 -116 c87 -60 121 -193 75 -293 -25 -56 -44 -77 -91 -101 -181 -92 -377 78 -314 272 29 87 60 118 156 153 8 3 42 4 74 2 44 -3 69 -11 100 -33z"></path><path d="M12845 1587 c-3 -7 -4 -154 -3 -327 l3 -315 57 -3 56 -3 4 203 c4 243 14 277 93 323 60 36 170 40 213 8 65 -49 67 -53 72 -301 l5 -227 60 0 60 0 0 230 c0 219 -1 232 -23 280 -29 63 -55 91 -114 121 -39 20 -62 24 -135 24 -97 0 -155 -20 -205 -67 l-28 -27 0 47 0 47 -55 0 c-36 0 -57 -5 -60 -13z"></path><path d="M14030 1270 l0 -331 58 3 57 3 3 328 2 327 -60 0 -60 0 0 -330z"></path><path d="M14370 1270 l0 -330 59 0 60 0 3 208 c3 237 11 264 84 315 35 25 51 29 111 30 87 1 129 -20 161 -83 21 -42 22 -56 22 -257 l0 -213 60 0 60 0 0 233 c0 223 -1 234 -24 282 -50 108 -114 144 -250 145 -75 0 -96 -4 -140 -26 -28 -14 -61 -35 -73 -46 l-23 -21 0 46 0 47 -55 0 -55 0 0 -330z"></path><path d="M15335 1571 c-98 -47 -156 -123 -175 -230 -29 -161 41 -305 180 -370 72 -34 205 -41 283 -16 54 18 123 61 131 83 3 6 -8 28 -25 47 l-30 34 -40 -28 c-127 -93 -316 -47 -373 91 -9 21 -16 40 -16 43 0 3 120 5 266 5 l267 0 -5 78 c-7 124 -66 213 -173 264 -51 24 -72 28 -145 28 -73 0 -93 -4 -145 -29z m246 -94 c46 -25 93 -83 103 -129 l6 -28 -210 0 -211 0 7 23 c22 73 64 122 125 146 46 19 133 13 180 -12z"></path><path d="M1272 1499 c-149 -74 -157 -282 -14 -366 155 -91 344 50 302 225 -30 129 -172 198 -288 141z"></path><path d="M1935 1476 c-129 -58 -142 -245 -23 -323 117 -78 281 9 281 149 0 110 -79 189 -186 188 -23 -1 -55 -7 -72 -14z"></path><path d="M2560 1418 c-125 -64 -117 -242 14 -299 56 -24 96 -20 147 14 58 39 81 84 77 147 -5 67 -34 112 -93 140 -53 26 -90 25 -145 -2z"></path><path d="M3186 1367 c-128 -73 -85 -261 63 -274 36 -4 53 0 80 19 55 37 75 71 75 128 0 56 -20 91 -74 128 -42 28 -94 28 -144 -1z"></path><path d="M1610 1174 c-84 -36 -124 -106 -118 -205 3 -58 8 -74 34 -106 101 -125 276 -112 347 26 31 62 34 114 11 169 -45 108 -170 161 -274 116z"></path><path d="M2252 1143 c-44 -21 -79 -68 -90 -120 -31 -136 85 -252 220 -221 134 30 185 200 90 301 -15 16 -39 35 -54 43 -36 19 -125 17 -166 -3z"></path><path d="M2895 1094 c-72 -38 -99 -84 -93 -164 5 -65 26 -99 82 -131 150 -85 308 88 216 238 -38 63 -140 91 -205 57z"></path><path d="M1935 843 c-132 -69 -164 -224 -67 -326 92 -98 235 -88 318 21 78 101 42 242 -77 303 -47 23 -132 25 -174 2z"></path><path d="M2613 829 c-37 -11 -100 -69 -114 -106 -5 -13 -9 -47 -9 -75 0 -94 65 -167 159 -176 66 -6 113 12 155 58 70 77 68 178 -5 251 -53 53 -115 69 -186 48z"></path><path d="M2300 531 c-72 -22 -118 -62 -144 -125 -60 -145 65 -304 223 -282 59 8 108 40 142 95 24 38 29 55 29 111 0 70 -8 88 -64 148 -18 20 -50 38 -80 47 -54 16 -68 17 -106 6z"></path></g></svg> 