<?xml version="1.0" encoding="UTF-8"?> <svg xmlns="http://www.w3.org/2000/svg" width="199" height="180" viewBox="0 0 199 180" fill="none"><path d="M103.274 25.0437C102.308 24.5303 100.737 24.5303 99.7707 25.0437C98.8043 25.557 98.8043 26.397 99.7707 26.9197C100.737 27.433 102.308 27.433 103.274 26.9197C104.24 26.397 104.24 25.557 103.274 25.0437Z" fill="white"></path><path d="M94.7173 29.6263C93.7509 29.113 92.1805 29.113 91.2141 29.6263C90.2477 30.1397 90.2477 30.9797 91.2141 31.5023C92.1805 32.025 93.7509 32.0157 94.7173 31.5023C95.6836 30.9797 95.6836 30.1397 94.7173 29.6263Z" fill="white"></path><path d="M86.1505 34.209C85.1841 33.6957 83.6137 33.6957 82.6473 34.209C81.6809 34.7223 81.6809 35.5623 82.6473 36.085C83.6137 36.5983 85.1841 36.5983 86.1505 36.085C87.1169 35.5623 87.1169 34.7223 86.1505 34.209Z" fill="white"></path><path d="M77.5937 38.7917C76.6273 38.2783 75.0569 38.2783 74.0905 38.7917C73.1241 39.305 73.1241 40.145 74.0905 40.6677C75.0569 41.181 76.6273 41.181 77.5937 40.6677C78.5601 40.145 78.5601 39.305 77.5937 38.7917Z" fill="white"></path><path d="M69.0271 43.3743C68.0607 42.861 66.4903 42.861 65.5239 43.3743C64.5575 43.8877 64.5575 44.7277 65.5239 45.2503C66.4903 45.7637 68.0607 45.7637 69.0271 45.2503C69.9935 44.7277 69.9935 43.897 69.0271 43.3743Z" fill="white"></path><path d="M117.971 138.35C121.505 140.245 127.283 140.236 130.816 138.35L187.522 107.998C191.055 106.104 191.055 103.014 187.522 101.12L72.2988 39.445C68.7654 37.5503 62.9871 37.5503 59.4537 39.445L2.74819 69.797C-0.785206 71.6917 -0.785206 74.781 2.74819 76.6757L117.971 138.35Z" fill="url(#paint0_linear)"></path><path d="M195.605 100.569L138.417 69.9557C134.853 68.0517 129.024 68.0517 125.461 69.9557L9.24118 132.172C5.67758 134.076 5.67758 137.202 9.24118 139.106L66.44 169.72C66.4803 169.738 66.5306 169.766 66.5708 169.785V171.157H73.0236C75.3389 171.138 77.6442 170.672 79.3958 169.729L195.615 107.513C199.169 105.59 199.169 102.473 195.605 100.569Z" fill="url(#paint1_linear)"></path><path d="M0 130.912V130.986C0 130.958 0.0100667 130.94 0 130.912ZM190.069 99.6357C190.069 99.645 190.069 99.6637 190.069 99.673C190.079 99.673 190.079 99.6357 190.069 99.6357ZM187.421 103.108L72.2082 164.792C68.6748 166.686 62.8965 166.677 59.3631 164.792L2.65758 134.44C0.895917 133.497 0.0100458 132.256 0.0100458 131.014V135.896C-0.0100876 137.156 0.865717 138.425 2.65758 139.377L59.3631 169.729C62.8965 171.624 68.6748 171.624 72.2082 169.729L187.431 108.054C189.203 107.112 190.079 105.861 190.079 104.61V99.673C190.079 100.924 189.193 102.165 187.421 103.108Z" fill="url(#paint2_linear)"></path><path d="M72.2081 164.792C68.6747 166.686 62.8965 166.677 59.3631 164.792L2.6575 134.44C-0.875904 132.545 -0.875904 129.456 2.6575 127.561L117.881 65.8863C121.414 63.9917 127.192 63.9917 130.726 65.8863L187.431 96.2383C190.965 98.133 190.965 101.222 187.431 103.117L72.2081 164.792Z" fill="#F1F1F6"></path><path d="M0 130.912V130.986C0 130.958 0.0100667 130.94 0 130.912ZM190.069 99.6357C190.069 99.645 190.069 99.6637 190.069 99.673C190.079 99.673 190.079 99.6357 190.069 99.6357ZM187.421 103.108L72.2082 164.792C68.6748 166.686 62.8965 166.677 59.3631 164.792L2.65758 134.44C0.895917 133.497 0.0100458 132.256 0.0100458 131.014V135.896C-0.0100876 137.156 0.865717 138.425 2.65758 139.377L59.3631 169.729C62.8965 171.624 68.6748 171.624 72.2082 169.729L187.431 108.054C189.203 107.112 190.079 105.861 190.079 104.61V99.673C190.079 100.924 189.193 102.165 187.421 103.108Z" fill="url(#paint3_linear)"></path><path opacity="0.85" d="M0 130.912V130.986C0 130.958 0.0100667 130.94 0 130.912ZM190.069 99.6357C190.069 99.645 190.069 99.6637 190.069 99.673C190.079 99.673 190.079 99.6357 190.069 99.6357ZM187.421 103.108L72.2082 164.792C68.6748 166.686 62.8965 166.677 59.3631 164.792L2.65758 134.44C0.895917 133.497 0.0100458 132.256 0.0100458 131.014V135.896C-0.0100876 137.156 0.865717 138.425 2.65758 139.377L59.3631 169.729C62.8965 171.624 68.6748 171.624 72.2082 169.729L187.431 108.054C189.203 107.112 190.079 105.861 190.079 104.61V99.673C190.079 100.924 189.193 102.165 187.421 103.108Z" fill="#333366"></path><path d="M74.0704 160.349L10.9424 126.562L119.37 68.5183L182.499 102.305L74.0704 160.349Z" fill="white"></path><path d="M147.587 78.9903L162.939 87.2037L161.952 87.7357L146.591 79.513L147.587 78.9903Z" fill="#BBC0E6"></path><path class="second_button" d="M41.515 143.988C38.8875 142.578 34.6293 142.578 32.0019 143.988C29.3745 145.397 29.3745 147.674 32.0019 149.084C34.6293 150.493 38.8875 150.493 41.515 149.084C44.1424 147.674 44.1424 145.397 41.515 143.988ZM40.1761 148.365C38.2835 149.373 35.2233 149.373 33.3307 148.365C31.4382 147.357 31.4382 145.714 33.3307 144.697C35.2233 143.689 38.2835 143.689 40.1761 144.697C42.0686 145.714 42.0686 147.357 40.1761 148.365Z" fill="#CED3F8"></path><path d="M187.421 96.2383L130.716 65.8863C127.182 63.9917 121.404 63.9917 117.871 65.8863L54.8431 99.6263L117.971 133.413C121.505 135.308 127.283 135.298 130.816 133.413L187.421 103.117C190.955 101.222 190.955 98.1237 187.421 96.2383Z" fill="#F1F1F6"></path><path d="M125.139 102.193C121.786 100.401 117.337 99.5797 112.968 99.701H106.123V100.746C104.824 101.129 103.596 101.614 102.499 102.202C96.2675 105.562 96.3077 111.004 102.579 114.364C103.656 114.942 104.854 115.409 106.133 115.792V116.874H114.347C118.303 116.809 122.219 115.978 125.219 114.364C131.44 110.994 131.41 105.553 125.139 102.193Z" fill="url(#paint4_linear)"></path><path d="M91.5261 104.358C91.5261 102.212 93.0563 100.065 96.1165 98.4223C99.1768 96.7797 103.193 95.9583 107.21 95.9583C111.227 95.9583 115.233 96.7797 118.293 98.4223C121.354 100.065 122.884 102.212 122.884 104.358C122.884 106.505 121.354 108.652 118.293 110.294C115.233 111.928 111.217 112.749 107.21 112.749C103.203 112.749 99.1869 111.928 96.1165 110.294C93.0663 108.652 91.5362 106.505 91.5261 104.358Z" fill="#FFD03E"></path><path d="M118.303 110.294C115.243 111.928 111.227 112.749 107.22 112.749C103.213 112.749 99.1969 111.928 96.1265 110.294C93.0663 108.652 91.5361 106.505 91.5361 104.358V108.502C91.5361 110.649 93.0663 112.796 96.1265 114.438C99.1868 116.081 103.203 116.893 107.22 116.893C111.237 116.893 115.243 116.072 118.303 114.438C121.364 112.796 122.894 110.649 122.894 108.502V104.358C122.894 106.505 121.364 108.652 118.303 110.294Z" fill="url(#paint5_linear)"></path><path d="M98.2105 109.174C100.697 110.509 103.958 111.172 107.22 111.172C110.482 111.172 113.743 110.509 116.22 109.174C118.515 107.942 119.743 106.365 119.924 104.76C119.743 103.154 118.515 101.568 116.22 100.345C113.733 99.0103 110.472 98.3477 107.21 98.3477C103.948 98.3477 100.697 99.0103 98.2004 100.345C95.9052 101.577 94.677 103.154 94.4958 104.76C94.677 106.365 95.9153 107.952 98.2105 109.174Z" fill="#FFAD02"></path><path d="M98.2103 100.345C100.697 99.0103 103.958 98.3477 107.22 98.3477C110.482 98.3477 113.743 99.0103 116.23 100.345C118.525 101.577 119.753 103.154 119.934 104.76C119.944 104.629 119.954 104.489 119.954 104.358C119.954 102.613 118.716 100.868 116.23 99.5423C113.743 98.2077 110.482 97.545 107.22 97.545C103.958 97.545 100.707 98.2077 98.2103 99.5423C95.7239 100.877 94.4756 102.622 94.4756 104.358C94.4756 104.489 94.4857 104.629 94.4957 104.76C94.6769 103.154 95.9151 101.568 98.2103 100.345Z" fill="#EF4E16"></path><path d="M113.492 102.622L114.69 101.978V101.166L113.492 101.81V102.622Z" fill="#EF4E16"></path><path d="M107.935 103.976C107.482 103.733 107.24 103.416 107.24 103.08C107.24 102.744 107.492 102.417 107.935 102.174C108.861 101.68 110.371 101.68 111.297 102.174C112.223 102.669 112.223 103.481 111.297 103.976L112.827 104.797C114.337 103.994 114.549 102.753 113.492 101.82L114.7 101.176L113.169 100.354L111.961 100.998C110.22 100.429 107.905 100.55 106.405 101.353C105.549 101.81 105.076 102.417 105.076 103.07C105.076 103.714 105.549 104.33 106.405 104.788C107.331 105.282 107.331 106.094 106.405 106.589C105.479 107.084 103.969 107.084 103.042 106.589C102.116 106.094 102.116 105.282 103.042 104.788L101.512 103.966C100.002 104.769 99.7909 106.01 100.838 106.944L99.7305 107.541L101.261 108.362L102.368 107.765C104.109 108.334 106.425 108.213 107.925 107.41C109.696 106.458 109.696 104.918 107.935 103.976Z" fill="#FFD03E"></path><path d="M99.7405 108.344L101.261 109.165V108.353L99.7405 107.541V108.344Z" fill="#FD9009"></path><path d="M101.261 109.165L102.378 108.568V107.765L101.261 108.353V109.165Z" fill="#EF4E16"></path><path d="M111.297 104.778L112.817 105.6V104.788L111.297 103.976V104.778Z" fill="#FD9009"></path><path d="M103.042 105.6V104.788C102.388 105.142 102.197 105.646 102.469 106.094C102.579 105.908 102.771 105.74 103.042 105.6Z" fill="#EF4E16"></path><path d="M100.194 105.646V106.552C100.204 106.766 100.264 106.981 100.385 107.186L100.848 106.934C100.395 106.552 100.184 106.094 100.194 105.646Z" fill="#FD9009"></path><path d="M106.405 105.6C106.676 105.749 106.858 105.917 106.978 106.094C107.25 105.656 107.069 105.142 106.405 104.788C105.549 104.33 105.076 103.724 105.076 103.07V103.873C105.076 104.526 105.549 105.133 106.405 105.6Z" fill="#FD9009"></path><path d="M114.146 103.07C114.146 103.696 113.713 104.312 112.827 104.788V105.6C113.733 105.114 114.166 104.47 114.146 103.836V103.07Z" fill="#EF4E16"></path><path d="M107.935 107.401C106.425 108.204 104.119 108.325 102.378 107.756V108.568C104.119 109.137 106.435 109.016 107.935 108.213C108.811 107.746 109.253 107.13 109.264 106.514V105.693C109.253 106.309 108.811 106.934 107.935 107.401Z" fill="url(#paint6_linear)"></path><path d="M111.297 102.174C110.371 101.68 108.861 101.68 107.935 102.174C107.482 102.417 107.24 102.734 107.24 103.08C107.24 103.22 107.28 103.35 107.361 103.481C107.482 103.294 107.673 103.126 107.935 102.986C108.861 102.492 110.371 102.492 111.297 102.986C111.569 103.136 111.75 103.304 111.871 103.481C112.143 103.033 111.951 102.52 111.297 102.174Z" fill="#EF4E16"></path><path d="M122.894 57.393H91.5261V108.493H122.894V57.393Z" fill="url(#paint7_linear)"></path><path d="M190.169 66.521V66.4463C190.169 66.4743 190.169 66.5023 190.169 66.521ZM0.100586 35.2077C0.100586 35.1983 0.100586 35.1797 0.100586 35.1703C0.100586 35.1703 0.100586 35.2077 0.100586 35.2077ZM0.100586 35.2077V40.145C0.100586 41.3957 0.986458 42.637 2.74812 43.589L117.971 105.264C121.505 107.158 127.283 107.158 130.816 105.264L187.522 74.9117C189.314 73.9503 190.19 72.6903 190.169 71.421V66.5397C190.159 67.781 189.284 69.0223 187.522 69.965L130.816 100.317C127.283 102.212 121.505 102.212 117.971 100.317L2.74812 38.6517C0.986458 37.6997 0.100586 36.4583 0.100586 35.2077Z" fill="url(#paint8_linear)"></path><path d="M117.971 100.326C121.505 102.221 127.283 102.212 130.816 100.326L187.522 69.9743C191.055 68.0797 191.055 64.9903 187.522 63.0957L72.2988 1.421C68.7654 -0.473667 62.9871 -0.473667 59.4537 1.421L2.74819 31.773C-0.785206 33.6677 -0.785206 36.757 2.74819 38.6517L117.971 100.326Z" fill="#F6F6FB"></path><path d="M190.169 66.521V66.4463C190.169 66.4743 190.169 66.5023 190.169 66.521ZM0.100586 35.2077C0.100586 35.1983 0.100586 35.1797 0.100586 35.1703C0.100586 35.1703 0.100586 35.2077 0.100586 35.2077ZM0.100586 35.2077V40.145C0.100586 41.3957 0.986458 42.637 2.74812 43.589L117.971 105.264C121.505 107.158 127.283 107.158 130.816 105.264L187.522 74.9117C189.314 73.9503 190.19 72.6903 190.169 71.421V66.5397C190.159 67.781 189.284 69.0223 187.522 69.965L130.816 100.317C127.283 102.212 121.505 102.212 117.971 100.317L2.74812 38.6517C0.986458 37.6997 0.100586 36.4583 0.100586 35.2077Z" fill="url(#paint9_linear)"></path><path opacity="0.85" d="M190.169 66.521V66.4463C190.169 66.4743 190.169 66.5023 190.169 66.521ZM0.100586 35.2077C0.100586 35.1983 0.100586 35.1797 0.100586 35.1703C0.100586 35.1703 0.100586 35.2077 0.100586 35.2077ZM0.100586 35.2077V40.145C0.100586 41.3957 0.986458 42.637 2.74812 43.589L117.971 105.264C121.505 107.158 127.283 107.158 130.816 105.264L187.522 74.9117C189.314 73.9503 190.19 72.6903 190.169 71.421V66.5397C190.159 67.781 189.284 69.0223 187.522 69.965L130.816 100.317C127.283 102.212 121.505 102.212 117.971 100.317L2.74812 38.6517C0.986458 37.6997 0.100586 36.4583 0.100586 35.2077Z" fill="#333366"></path><path d="M117.971 100.326C121.505 102.221 127.283 102.212 130.816 100.326L187.522 69.9743C191.055 68.0797 191.055 64.9903 187.522 63.0957L72.2988 1.421C68.7654 -0.473667 62.9871 -0.473667 59.4537 1.421L2.74819 31.773C-0.785206 33.6677 -0.785206 36.757 2.74819 38.6517L117.971 100.326Z" fill="#F6F6FB"></path><path d="M116.109 95.8837L179.227 62.097L70.7989 4.05301L7.68091 37.849L116.109 95.8837Z" fill="#DAE0F5"></path><path d="M42.5921 14.525L27.2303 22.7477L28.2169 23.2703L43.5786 15.0477L42.5921 14.525Z" fill="#BBC0E6"></path><path class="first_button" d="M148.664 84.6183C151.292 86.0277 155.55 86.0277 158.177 84.6183C160.805 83.209 160.805 80.9317 158.177 79.5223C155.55 78.113 151.292 78.113 148.664 79.5223C146.037 80.9317 146.037 83.209 148.664 84.6183ZM149.993 80.241C151.886 79.233 154.946 79.233 156.839 80.241C158.731 81.249 158.731 82.8916 156.839 83.909C154.946 84.917 151.886 84.917 149.993 83.909C148.101 82.8916 148.101 81.249 149.993 80.241Z" fill="#CED3F8"></path><g opacity="0.5"><g opacity="0.5"><path opacity="0.5" d="M91.5261 79.737C91.5261 77.5903 93.0563 75.4437 96.1165 73.801C99.1768 72.1583 103.193 71.337 107.21 71.337C111.227 71.337 115.233 72.1583 118.293 73.801C121.354 75.4437 122.884 77.5903 122.884 79.737C122.884 81.8837 121.354 84.0303 118.293 85.673C115.233 87.3157 111.217 88.1277 107.21 88.1277C103.203 88.1277 99.1869 87.3063 96.1165 85.673C93.0663 84.0303 91.5362 81.8837 91.5261 79.737Z" fill="#FFD03E"></path><path opacity="0.5" d="M118.303 85.673C115.243 87.3157 111.227 88.1277 107.22 88.1277C103.213 88.1277 99.1969 87.3063 96.1265 85.673C93.0663 84.0303 91.5361 81.8837 91.5361 79.737V83.881C91.5361 86.0277 93.0663 88.1743 96.1265 89.817C99.1868 91.4597 103.203 92.2717 107.22 92.2717C111.237 92.2717 115.243 91.4503 118.303 89.817C121.364 88.1743 122.894 86.0277 122.894 83.881V79.737C122.894 81.8837 121.364 84.0303 118.303 85.673Z" fill="url(#paint10_linear)"></path><path opacity="0.5" d="M98.2105 84.553C100.697 85.8877 103.958 86.5503 107.22 86.5503C110.482 86.5503 113.743 85.8877 116.22 84.553C118.515 83.321 119.743 81.7437 119.924 80.1383C119.743 78.533 118.515 76.9463 116.22 75.7237C113.733 74.389 110.472 73.7263 107.21 73.7263C103.948 73.7263 100.697 74.389 98.2004 75.7237C95.9052 76.9557 94.677 78.533 94.4958 80.1383C94.677 81.7437 95.9153 83.3303 98.2105 84.553Z" fill="#FFAD02"></path><path opacity="0.5" d="M98.2103 75.7237C100.697 74.389 103.958 73.7263 107.22 73.7263C110.482 73.7263 113.743 74.389 116.23 75.7237C118.525 76.9557 119.753 78.533 119.934 80.1383C119.944 80.0077 119.954 79.8677 119.954 79.737C119.954 77.9917 118.716 76.2463 116.23 74.921C113.743 73.5863 110.482 72.9237 107.22 72.9237C103.958 72.9237 100.707 73.5863 98.2103 74.921C95.7239 76.2557 94.4756 78.001 94.4756 79.737C94.4756 79.8677 94.4857 80.0077 94.4957 80.1383C94.6769 78.533 95.9151 76.9557 98.2103 75.7237Z" fill="#EF4E16"></path></g><g opacity="0.5"><path opacity="0.5" d="M113.492 78.001L114.69 77.357V76.5544L113.492 77.1984V78.001Z" fill="#EF4E16"></path><path opacity="0.5" d="M107.935 79.3543C107.482 79.1117 107.24 78.7943 107.24 78.4583C107.24 78.1223 107.492 77.7957 107.935 77.553C108.861 77.0583 110.371 77.0583 111.297 77.553C112.223 78.0477 112.223 78.8597 111.297 79.3543L112.827 80.1757C114.337 79.373 114.549 78.1317 113.492 77.1983L114.7 76.5543L113.169 75.733L111.961 76.377C110.22 75.8077 107.905 75.929 106.405 76.7317C105.549 77.189 105.076 77.7957 105.076 78.449C105.076 79.093 105.549 79.709 106.405 80.1663C107.331 80.661 107.331 81.473 106.405 81.9677C105.479 82.4623 103.969 82.4623 103.042 81.9677C102.116 81.473 102.116 80.661 103.042 80.1663L101.512 79.345C100.002 80.1477 99.7909 81.389 100.838 82.3223L99.7305 82.9197L101.261 83.741L102.368 83.1437C104.109 83.713 106.425 83.5917 107.925 82.789C109.696 81.837 109.696 80.297 107.935 79.3543Z" fill="#FFD03E"></path><path opacity="0.5" d="M99.7405 83.7317L101.261 84.5437V83.741L99.7405 82.9197V83.7317Z" fill="#FD9009"></path><path opacity="0.5" d="M101.261 84.5437L102.378 83.9557V83.1437L101.261 83.741V84.5437Z" fill="#EF4E16"></path><path opacity="0.5" d="M111.297 80.157L112.817 80.9783V80.1663L111.297 79.3543V80.157Z" fill="#FD9009"></path><path opacity="0.5" d="M103.042 80.9783V80.1663C102.388 80.521 102.197 81.025 102.469 81.473C102.579 81.2957 102.771 81.1183 103.042 80.9783Z" fill="#EF4E16"></path><path opacity="0.5" d="M100.194 81.025V81.9303C100.204 82.145 100.264 82.3597 100.385 82.565L100.848 82.3223C100.395 81.9303 100.184 81.4823 100.194 81.025Z" fill="#FD9009"></path><path opacity="0.5" d="M106.405 80.9783C106.676 81.1277 106.858 81.2957 106.978 81.473C107.25 81.0343 107.069 80.521 106.405 80.1663C105.549 79.709 105.076 79.1023 105.076 78.449V79.261C105.076 79.905 105.549 80.521 106.405 80.9783Z" fill="#FD9009"></path><path opacity="0.5" d="M114.146 78.449C114.146 79.0743 113.713 79.6903 112.827 80.1663V80.9783C113.733 80.493 114.166 79.849 114.146 79.2143V78.449Z" fill="#EF4E16"></path><path opacity="0.5" d="M107.935 82.789C106.425 83.5917 104.119 83.713 102.378 83.1437V83.9557C104.119 84.525 106.435 84.4037 107.935 83.601C108.811 83.1343 109.253 82.5183 109.264 81.9023V81.081C109.253 81.697 108.811 82.313 107.935 82.789Z" fill="url(#paint11_linear)"></path><path opacity="0.5" d="M111.297 77.553C110.371 77.0583 108.861 77.0583 107.935 77.553C107.482 77.7957 107.24 78.113 107.24 78.4583C107.24 78.5983 107.28 78.729 107.361 78.8597C107.482 78.673 107.673 78.505 107.935 78.365C108.861 77.8703 110.371 77.8703 111.297 78.365C111.569 78.5143 111.75 78.6823 111.871 78.8597C112.143 78.4117 111.951 77.9077 111.297 77.553Z" fill="#EF4E16"></path></g></g><path d="M122.894 57.393H91.5261V108.493H122.894V57.393Z" fill="url(#paint12_linear)"></path><path d="M121.938 74.0064L142.202 63.161C144.99 61.6677 149.52 61.6677 152.309 63.161C155.097 64.6543 155.097 67.081 152.309 68.5743L132.044 79.4197C129.256 80.913 124.726 80.913 121.938 79.4197C119.149 77.917 119.149 75.4997 121.938 74.0064Z" fill="url(#paint13_linear)"></path><path d="M120.095 72.6437L139.977 62.0037C142.715 60.5383 147.175 60.5757 149.943 62.0783C152.711 63.5903 152.731 65.9983 149.993 67.4637L130.112 78.1036C127.373 79.569 122.914 79.5317 120.146 78.029C117.377 76.517 117.357 74.109 120.095 72.6437Z" fill="#807DFB"></path><path class="screen_button1" opacity="0.85" d="M120.095 72.6437L139.977 62.0037C142.715 60.5383 147.175 60.5757 149.943 62.0783C152.711 63.5903 152.731 65.9983 149.993 67.4637L130.112 78.1036C127.373 79.569 122.914 79.5317 120.146 78.029C117.377 76.517 117.357 74.109 120.095 72.6437Z" fill="#333366"></path><path d="M150.517 68.3597L130.253 78.2437C127.464 79.6063 122.934 79.6063 120.146 78.2437C118.777 77.5717 118.082 76.7037 118.062 75.8263V77.021C118.062 77.0397 118.062 77.0583 118.062 77.0677V77.1237H118.072C118.112 77.9917 118.807 78.8503 120.156 79.5037C122.944 80.8663 127.474 80.8663 130.263 79.5037L150.527 69.6197C151.896 68.9477 152.591 68.0797 152.611 67.193V65.8957C152.611 66.7917 151.916 67.6877 150.517 68.3597Z" fill="url(#paint14_linear)"></path><path class="screne_text" d="M132.528 72.485C131.672 72.0277 130.716 72.1397 129.568 72.5317L129.256 72.6343C128.461 72.8957 127.887 73.0637 127.343 72.765C126.89 72.5223 127.011 72.1397 127.585 71.8317C128.219 71.4863 129.004 71.393 129.669 71.7477L129.88 71.8597L130.575 71.4863L130.313 71.3463C129.337 70.8237 127.998 70.945 126.961 71.4957C126.004 72.009 125.813 72.6997 126.649 73.1477C127.525 73.6143 128.451 73.4837 129.598 73.101L129.91 72.9983C130.736 72.7183 131.33 72.6063 131.833 72.8677C132.316 73.1197 132.316 73.5303 131.612 73.9037C130.786 74.3423 129.89 74.3517 129.085 73.9223L128.944 73.8477L128.239 74.221L128.41 74.3143C129.588 74.949 130.998 74.9023 132.216 74.249C133.273 73.6983 133.484 72.989 132.528 72.485ZM134.823 72.0837L133.263 71.253L135.548 70.0303L134.903 69.685L132.618 70.9077L131.088 70.0863L133.575 68.7517L132.94 68.4157L129.739 70.1237L134.742 72.8023L137.974 71.0757L137.34 70.7303L134.823 72.0837ZM136.705 66.3997L141.004 68.705L140.913 68.7517L134.964 67.333L133.716 67.9957L138.719 70.6743L139.423 70.2917L135.115 67.9863L135.205 67.9397L141.165 69.3583L142.413 68.6957L137.41 66.017L136.705 66.3997ZM145.03 65.1397L144.054 64.617C142.665 63.8703 141.306 63.9263 139.997 64.6263L138.376 65.4943L143.38 68.173L145 67.305C146.319 66.6143 146.42 65.8863 145.03 65.1397ZM144.366 66.9783L143.46 67.4637L139.725 65.4663L140.631 64.981C141.568 64.477 142.373 64.4863 143.309 64.9903L144.356 65.5503C145.282 66.0357 145.322 66.465 144.366 66.9783Z" fill="#FCBA06"></path><path d="M7.68079 37.849L70.7988 4.05301L122.159 31.549L30.4013 50.0103L7.68079 37.849Z" fill="url(#paint15_linear)"></path><path d="M125.139 51.093C121.786 49.301 117.337 48.4797 112.968 48.601H106.123V49.637C104.824 50.0197 103.596 50.505 102.499 51.093C96.2675 54.453 96.3077 59.8943 102.579 63.2543C103.656 63.833 104.854 64.2997 106.133 64.6823V65.7743H114.347C118.303 65.709 122.219 64.8783 125.219 63.2637C131.44 59.8943 131.41 54.453 125.139 51.093Z" fill="url(#paint16_linear)"></path><path d="M91.5261 53.249C91.5261 51.1023 93.0563 48.9557 96.1165 47.313C99.1768 45.6703 103.193 44.849 107.21 44.849C111.227 44.849 115.233 45.6703 118.293 47.313C121.354 48.9557 122.884 51.1023 122.884 53.249C122.884 55.3957 121.354 57.5423 118.293 59.185C115.233 60.8277 111.217 61.6397 107.21 61.6397C103.203 61.6397 99.1869 60.8183 96.1165 59.185C93.0663 57.5423 91.5362 55.3957 91.5261 53.249Z" fill="#FFD03E"></path><path d="M118.303 59.185C115.243 60.8277 111.227 61.6397 107.22 61.6397C103.213 61.6397 99.1969 60.8183 96.1265 59.185C93.0663 57.5423 91.5361 55.3957 91.5361 53.249V57.393C91.5361 59.5397 93.0663 61.6863 96.1265 63.329C99.1868 64.9717 103.203 65.7837 107.22 65.7837C111.237 65.7837 115.243 64.9623 118.303 63.329C121.364 61.6863 122.894 59.5397 122.894 57.393V53.249C122.894 55.3957 121.364 57.5423 118.303 59.185Z" fill="url(#paint17_linear)"></path><path d="M98.2105 58.0743C100.697 59.409 103.958 60.0717 107.22 60.0717C110.482 60.0717 113.743 59.409 116.22 58.0743C118.515 56.8423 119.743 55.265 119.924 53.6597C119.743 52.0543 118.515 50.4677 116.22 49.245C113.733 47.9103 110.472 47.2477 107.21 47.2477C103.948 47.2477 100.697 47.9103 98.2004 49.245C95.9052 50.477 94.677 52.0543 94.4958 53.6597C94.677 55.265 95.9153 56.8423 98.2105 58.0743Z" fill="#FFAD02"></path><path d="M98.2103 49.2357C100.697 47.901 103.958 47.2383 107.22 47.2383C110.482 47.2383 113.743 47.901 116.23 49.2357C118.525 50.4677 119.753 52.045 119.934 53.6503C119.944 53.5197 119.954 53.3797 119.954 53.249C119.954 51.5037 118.716 49.7583 116.23 48.433C113.743 47.0983 110.482 46.4357 107.22 46.4357C103.958 46.4357 100.707 47.0983 98.2103 48.433C95.7239 49.7677 94.4756 51.513 94.4756 53.2583C94.4756 53.389 94.4857 53.529 94.4957 53.6597C94.6769 52.045 95.9151 50.4677 98.2103 49.2357Z" fill="#EF4E16"></path><path d="M113.492 51.513L114.69 50.869V50.0663L113.492 50.7103V51.513Z" fill="#EF4E16"></path><path d="M107.935 52.8663C107.482 52.6237 107.24 52.3063 107.24 51.9703C107.24 51.6343 107.492 51.3077 107.935 51.0743C108.861 50.5797 110.371 50.5797 111.297 51.0743C112.223 51.569 112.223 52.381 111.297 52.8757L112.827 53.697C114.337 52.8943 114.549 51.653 113.492 50.7197L114.7 50.0757L113.169 49.2543L111.961 49.8983C110.22 49.329 107.905 49.4503 106.405 50.253C105.549 50.7103 105.076 51.317 105.076 51.9703C105.076 52.6143 105.549 53.2303 106.405 53.6877C107.331 54.1823 107.331 54.9943 106.405 55.489C105.479 55.9837 103.969 55.9837 103.042 55.489C102.116 54.9943 102.116 54.1823 103.042 53.6877L101.512 52.8663C100.002 53.669 99.7909 54.9103 100.838 55.8437L99.7305 56.441L101.261 57.2623L102.368 56.665C104.109 57.2343 106.425 57.113 107.925 56.3103C109.696 55.3583 109.696 53.809 107.935 52.8663Z" fill="#FFD03E"></path><path d="M99.7405 57.2437L101.261 58.065V57.253L99.7405 56.4317V57.2437Z" fill="#FD9009"></path><path d="M101.261 58.065L102.378 57.4677V56.6557L101.261 57.253V58.065Z" fill="#EF4E16"></path><path d="M111.297 53.6783L112.817 54.4903V53.6877L111.297 52.8663V53.6783Z" fill="#FD9009"></path><path d="M103.042 54.4903V53.6783C102.388 54.033 102.197 54.537 102.469 54.985C102.579 54.8077 102.771 54.6397 103.042 54.4903Z" fill="#EF4E16"></path><path d="M100.194 54.5463V55.4517C100.204 55.6663 100.264 55.881 100.385 56.0863L100.848 55.8343C100.395 55.4423 100.184 54.9943 100.194 54.5463Z" fill="#FD9009"></path><path d="M106.405 54.4903C106.676 54.6397 106.858 54.8077 106.978 54.985C107.25 54.5463 107.069 54.033 106.405 53.6783C105.549 53.221 105.076 52.6143 105.076 51.961V52.773C105.076 53.4263 105.549 54.033 106.405 54.4903Z" fill="#FD9009"></path><path d="M114.146 51.961C114.146 52.5863 113.713 53.2023 112.827 53.6783V54.4903C113.733 54.005 114.166 53.361 114.146 52.7263V51.961Z" fill="#EF4E16"></path><path d="M107.935 56.301C106.425 57.1037 104.119 57.225 102.378 56.6557V57.4677C104.119 58.037 106.435 57.9157 107.935 57.113C108.811 56.6463 109.253 56.0303 109.264 55.4143V54.593C109.253 55.209 108.811 55.825 107.935 56.301Z" fill="url(#paint18_linear)"></path><path d="M111.297 51.065C110.371 50.5703 108.861 50.5703 107.935 51.065C107.482 51.3077 107.24 51.625 107.24 51.961C107.24 52.101 107.28 52.2317 107.361 52.3623C107.482 52.1757 107.673 52.0077 107.935 51.8677C108.861 51.373 110.371 51.373 111.297 51.8677C111.569 52.017 111.75 52.185 111.871 52.3623C112.143 51.9237 111.951 51.4197 111.297 51.065Z" fill="#EF4E16"></path><path d="M186.112 119.74C183.566 117.948 180.183 117.126 176.861 117.248H171.647V118.284C170.66 118.666 169.724 119.152 168.888 119.74C164.147 123.09 164.177 128.522 168.949 131.873C169.774 132.452 170.68 132.918 171.647 133.292V134.374H177.898C180.898 134.309 183.888 133.488 186.173 131.864C190.914 128.522 190.884 123.09 186.112 119.74Z" fill="url(#paint19_linear)"></path><path d="M179.781 116.062C178.14 114.522 176.086 113.374 173.912 112.674C170.288 111.508 166.332 111.582 163.432 113.15C161.922 113.962 160.875 115.082 160.312 116.361L158.943 119.432C159.516 118.153 160.553 117.033 162.063 116.221C163.956 115.204 166.291 114.812 168.687 114.989C172.18 115.241 175.814 116.697 178.412 119.142C181.361 121.914 182.207 125.274 181.029 127.925L182.398 124.854C183.576 122.194 182.72 118.844 179.781 116.062Z" fill="url(#paint20_linear)"></path><path d="M179.418 116.884C183.787 121 183.556 126.376 178.905 128.877C174.264 131.378 166.925 130.072 162.557 125.956C158.188 121.84 158.419 116.464 163.07 113.953C167.711 111.461 175.049 112.768 179.418 116.884Z" fill="#DFE4F4"></path><path d="M184.945 125.825C184.492 126.852 184.029 127.869 183.576 128.896C182.871 130.473 181.582 131.854 179.72 132.853C173.992 135.933 164.983 134.328 159.607 129.26C155.973 125.844 154.926 121.718 156.376 118.452C156.829 117.425 157.292 116.398 157.745 115.381C156.295 118.648 157.342 122.764 160.976 126.189C166.352 131.257 175.361 132.862 181.089 129.782C182.962 128.774 184.25 127.402 184.945 125.825Z" fill="url(#paint21_linear)"></path><path d="M181.723 115.017C187.099 120.085 186.827 126.693 181.099 129.782C175.371 132.872 166.362 131.257 160.986 126.189C155.6 121.121 155.882 114.504 161.61 111.424C167.338 108.344 176.338 109.949 181.723 115.017ZM162.929 125.144C167.298 129.26 174.626 130.566 179.267 128.065C183.918 125.564 184.139 120.178 179.781 116.072C175.412 111.956 168.083 110.649 163.432 113.15C158.782 115.652 158.56 121.028 162.929 125.144Z" fill="white"></path><path d="M164.661 123.193L165.295 122.848C164.731 122.026 164.61 121.149 164.912 120.412L164.55 121.214C164.298 121.812 164.338 122.512 164.661 123.193Z" fill="#BBC0E6"></path><path d="M170.207 121.84C170.61 122.222 170.811 122.67 170.801 123.072C171.355 122.54 171.284 121.69 170.57 121.018C169.795 120.29 169.392 119.432 169.422 118.61C169.432 118.302 169.513 118.022 169.633 117.761L169.291 118.536C169.15 118.806 169.07 119.114 169.06 119.432C169.029 120.253 169.442 121.112 170.207 121.84Z" fill="#BBC0E6"></path><path d="M167.449 120.468C166.996 120.71 166.764 121.102 166.754 121.532C166.845 121.438 166.956 121.364 167.087 121.289L167.449 120.468Z" fill="#A3A9D0"></path><path d="M177.324 118.405C177.435 118.564 177.516 118.722 177.596 118.881L178.12 118.601L178.482 117.78L177.324 118.405Z" fill="#A3A9D0"></path><path d="M175.17 120.794L174.808 121.606L176.177 122.904L176.539 122.082L175.17 120.794Z" fill="#BBC0E6"></path><path d="M176.539 122.082L176.177 122.904C176.71 122.614 177.093 122.222 177.294 121.765C177.294 121.756 177.294 121.756 177.304 121.746L177.667 120.934C177.455 121.401 177.083 121.793 176.539 122.082Z" fill="#A3A9D0"></path><path d="M178.482 117.78L177.324 118.405C178.261 119.768 177.989 121.308 176.539 122.092L175.16 120.794C176.046 120.318 176.096 119.282 175.261 118.498C174.425 117.705 173.016 117.462 172.13 117.938C171.697 118.172 171.455 118.536 171.435 118.974C171.415 119.413 171.627 119.861 172.039 120.244C173.63 121.746 173.549 123.706 171.858 124.621C170.408 125.396 168.264 125.162 166.664 124.154L165.597 124.733L164.228 123.436L165.295 122.857C164.358 121.494 164.63 119.954 166.08 119.17L167.459 120.468C166.563 120.944 166.523 121.98 167.358 122.764C168.194 123.548 169.593 123.8 170.489 123.324C171.375 122.848 171.425 121.812 170.59 121.028C169.815 120.3 169.412 119.441 169.442 118.62C169.482 117.789 169.945 117.089 170.771 116.65C172.21 115.876 174.365 116.109 175.955 117.117L177.113 116.492L178.482 117.78Z" fill="white"></path><path d="M164.228 123.426L163.855 124.248L165.234 125.536L165.597 124.724L164.228 123.426Z" fill="#BBC0E6"></path><path d="M165.597 124.724L165.234 125.536L166.301 124.966L166.664 124.145L165.597 124.724Z" fill="#A3A9D0"></path><path d="M172.764 123.828C172.694 123.921 172.623 124.005 172.553 124.089C172.361 124.285 172.13 124.462 171.858 124.612C170.408 125.386 168.264 125.153 166.664 124.145L166.301 124.966C167.892 125.974 170.046 126.208 171.486 125.433C171.989 125.162 172.351 124.798 172.563 124.378V124.388L172.935 123.548C172.885 123.641 172.835 123.734 172.764 123.828Z" fill="url(#paint22_linear)"></path><path d="M175.502 120.542C176.046 120.01 175.975 119.161 175.261 118.489C174.425 117.696 173.016 117.453 172.13 117.929C171.697 118.162 171.455 118.526 171.435 118.965C171.435 118.974 171.435 118.984 171.435 118.993C171.526 118.9 171.637 118.816 171.768 118.75C172.653 118.274 174.063 118.517 174.898 119.31C175.291 119.684 175.482 120.104 175.492 120.496L175.502 120.542Z" fill="#A3A9D0"></path><path class="screneCircle" d="M51.3903 138.649C47.1321 136.372 47.112 132.676 51.34 130.398C55.568 128.121 62.4536 128.121 66.7118 130.398C70.97 132.676 70.9901 136.372 66.7621 138.649C62.5341 140.936 55.6485 140.936 51.3903 138.649Z" fill="#DFE4F4"></path><path d="M65.1313 133.768L56.4338 134.178L56.6955 132.368H54.2996L53.6453 135.672L65.1313 135.056V133.768Z" fill="white"></path><path d="M70.5372 53.5383L51.4207 43.2997C49.5181 42.2823 46.3974 42.2823 44.4948 43.2997L27.9653 52.1477L54.0178 66.0917L70.5473 57.2437C72.4398 56.2263 72.4398 54.5557 70.5372 53.5383Z" fill="#DFE4F4"></path><path d="M27.9653 57.085L54.0078 71.029V66.0917L27.9653 52.1477V57.085Z" fill="#D1D7F3"></path><g class="firstCard"><path opacity="0.8" d="M70.5372 46.725C72.4398 47.7423 72.4398 49.413 70.5372 50.4303L28.9618 72.681C27.0592 73.6983 23.9386 73.6983 22.036 72.681L2.91938 62.4423C1.01678 61.425 1.01678 59.7543 2.91938 58.737L44.4947 36.4863C46.3973 35.469 49.518 35.469 51.4206 36.4863L70.5372 46.725Z" fill="#FFAD02"></path><path d="M6.70447 60.977L17.3248 55.293L18.11 55.713L7.48966 61.397L6.70447 60.977Z" fill="white"></path><path d="M20.4454 53.6223L31.0658 47.9383L31.851 48.3583L21.2306 54.0423L20.4454 53.6223Z" fill="white"></path><path d="M34.1865 46.2677L47.3537 39.221L48.1389 39.641L34.9717 46.6877L34.1865 46.2677Z" fill="white"></path><path d="M38.7164 60.3143L62.7355 47.453L63.5207 47.873L39.5016 60.7343L38.7164 60.3143Z" fill="white"></path><path d="M64.0744 50.1503C63.6415 49.917 63.6415 49.553 64.0744 49.3197C64.5073 49.0863 65.2018 49.0863 65.6246 49.3197C66.0575 49.553 66.0575 49.917 65.6246 50.1503C65.1918 50.3743 64.4972 50.3743 64.0744 50.1503Z" fill="#807DFB"></path><path d="M60.3094 52.213C59.8765 51.9797 59.8765 51.6157 60.3094 51.3823C60.7423 51.149 61.4369 51.149 61.8596 51.3823C62.2925 51.6157 62.2925 51.9797 61.8596 52.213C61.4268 52.4463 60.7322 52.4463 60.3094 52.213Z" fill="#807DFB"></path><path d="M56.2022 54.4157C55.7693 54.1823 55.7693 53.8183 56.2022 53.585C56.6351 53.3517 57.3297 53.3517 57.7525 53.585C58.1854 53.8183 58.1854 54.1823 57.7525 54.4157C57.3196 54.649 56.625 54.649 56.2022 54.4157Z" fill="#807DFB"></path><path d="M36.3608 51.4663L37.156 51.8956L33.8945 53.641L35.9279 54.7236L36.0387 54.6676C35.8977 54.397 35.8172 53.9583 36.7232 53.473C37.75 52.9223 39.3808 52.8756 40.6592 53.557C42.0082 54.2756 42.0585 55.2556 40.6995 55.9836C39.3304 56.7116 37.5587 56.7583 36.2702 56.0676L36.0689 55.965L36.9446 55.4983L37.0856 55.573C37.9815 56.049 39.0284 56.0397 39.874 55.5823C40.7498 55.1157 40.6995 54.537 39.7834 54.0516C38.958 53.613 37.9815 53.6036 37.2567 53.9863C36.6426 54.313 36.703 54.649 36.8238 54.8543L35.6158 55.4983L32.2234 53.6783L36.3608 51.4663Z" fill="#807DFB"></path><path d="M39.411 49.7023C40.8304 48.937 42.6323 48.9463 44.2631 49.8237L45.6926 50.589C47.3536 51.4756 47.3334 52.4276 45.914 53.1836C44.4946 53.949 42.7128 53.9583 41.0518 53.0716L39.6224 52.3063C37.9916 51.429 37.9916 50.4583 39.411 49.7023ZM41.988 52.6143C43.0551 53.1836 44.1725 53.277 45.1389 52.7543C46.1154 52.2316 45.914 51.6343 44.8671 51.0743L43.347 50.2623C42.29 49.7023 41.1223 49.6277 40.1962 50.1223C39.26 50.6263 39.4311 51.2517 40.468 51.8023L41.988 52.6143Z" fill="#807DFB"></path><path d="M44.847 46.7903C46.2664 46.025 48.0683 46.0343 49.6991 46.9117L51.1286 47.677C52.7896 48.5637 52.7695 49.5157 51.3501 50.2717C49.9307 51.037 48.1489 51.0463 46.4879 50.1597L45.0584 49.3943C43.4276 48.517 43.4276 47.5463 44.847 46.7903ZM47.4241 49.7117C48.4911 50.281 49.6085 50.3743 50.5749 49.8517C51.5514 49.329 51.3501 48.7317 50.3032 48.1717L48.7831 47.3597C47.7261 46.7996 46.5583 46.725 45.6322 47.2196C44.696 47.7236 44.8671 48.349 45.904 48.8997L47.4241 49.7117Z" fill="#807DFB"></path><path d="M57.1887 45.0823L57.2693 45.129C58.3061 45.6796 58.2055 46.445 57.2491 47.089L58.1853 47.593L57.38 48.0223L56.4539 47.5276C55.0244 48.153 53.4439 48.1343 52.1051 47.4156L51.8937 47.3036L52.7795 46.8276L52.9507 46.921C53.7963 47.3783 54.7325 47.425 55.6284 47.0796L53.4741 45.9223C52.0749 46.3796 50.9575 46.5196 49.9206 45.969L49.8703 45.941C48.9341 45.437 49.0649 44.681 49.9911 44.065L49.0649 43.5703L49.8703 43.141L50.8165 43.645C52.0145 43.169 53.4339 43.1223 54.5009 43.6917L54.8331 43.869L53.9473 44.345L53.6755 44.205C53.0413 43.869 52.3265 43.8783 51.6521 44.1023L53.605 45.1477C55.0244 44.653 56.172 44.541 57.1887 45.0823ZM52.5983 45.4556L50.8165 44.5037C50.3635 44.8397 50.3031 45.213 50.7763 45.4743C51.3098 45.7543 51.8836 45.6796 52.5983 45.4556ZM56.3733 45.5956C55.8599 45.325 55.2459 45.3716 54.4808 45.5956L56.4337 46.641C56.927 46.249 56.8565 45.857 56.3733 45.5956Z" fill="#807DFB"></path><path d="M70.5371 50.4303L28.9618 72.681C27.0592 73.6983 23.9385 73.6983 22.0359 72.681L2.91932 62.4423C2.05359 61.9757 1.58046 61.3783 1.50999 60.7623V61.9197C1.49992 62.0317 1.49992 62.1343 1.50999 62.2463V62.2557C1.59052 62.8717 2.05359 63.469 2.91932 63.9357L22.0359 74.1743C23.9385 75.1917 27.0592 75.1917 28.9618 74.1743L70.5371 51.9237C71.5035 51.401 71.9767 50.7197 71.9666 50.0383V48.573C71.9666 49.2543 71.4935 49.9263 70.5371 50.4303Z" fill="url(#paint23_linear)"></path><path opacity="0.8" d="M70.5372 46.725C72.4398 47.7423 72.4398 49.413 70.5372 50.4303L28.9618 72.681C27.0592 73.6983 23.9386 73.6983 22.036 72.681L2.91938 62.4423C1.01678 61.425 1.01678 59.7543 2.91938 58.737L44.4947 36.4863C46.3973 35.469 49.518 35.469 51.4206 36.4863L70.5372 46.725Z" fill="#333366"></path></g><path d="M141.809 165.286L111.156 148.878L85.1035 162.822L115.757 179.23C117.659 180.248 120.78 180.248 122.682 179.23L141.799 168.992C143.712 167.984 143.712 166.313 141.809 165.286Z" fill="#DFE4F4"></path><path d="M100.234 138.098C98.3312 137.081 95.2105 137.081 93.3079 138.098L74.1914 148.337C72.2888 149.354 72.2888 151.025 74.1914 152.042L85.1137 157.885L111.166 143.941L100.234 138.098Z" fill="#DFE4F4"></path><path opacity="0.8" d="M122.682 169.085C120.78 170.102 117.659 170.102 115.757 169.085L74.1812 146.834C72.2786 145.817 72.2786 144.146 74.1812 143.129L93.2978 132.89C95.2004 131.873 98.3211 131.873 100.224 132.89L141.799 155.141C143.702 156.158 143.702 157.829 141.799 158.846L122.682 169.085Z" fill="#6B67E9"></path><path d="M96.6902 135.252L137.38 157.036L136.595 157.456L95.905 135.672L96.6902 135.252Z" fill="white"></path><path d="M94.2642 136.549L114.609 147.441L113.824 147.861L93.479 136.969L94.2642 136.549Z" fill="white"></path><path d="M113.512 163.364C113.945 163.13 114.639 163.13 115.062 163.364C115.495 163.597 115.495 163.961 115.062 164.194C114.629 164.428 113.945 164.428 113.512 164.194C113.079 163.961 113.079 163.588 113.512 163.364Z" fill="white"></path><path d="M109.404 161.161C109.837 160.928 110.532 160.928 110.955 161.161C111.388 161.394 111.388 161.758 110.955 161.992C110.522 162.225 109.827 162.225 109.404 161.992C108.972 161.758 108.972 161.385 109.404 161.161Z" fill="white"></path><path d="M105.287 158.958C105.72 158.725 106.415 158.725 106.838 158.958C107.27 159.192 107.27 159.556 106.838 159.789C106.405 160.022 105.71 160.022 105.287 159.789C104.865 159.565 104.865 159.192 105.287 158.958Z" fill="white"></path><path d="M109.485 148.468L103.224 151.809L102.338 151.333L107.643 148.486L107.532 148.43L104.623 148.794L103.656 148.281L108.106 147.73L109.485 148.468Z" fill="#FFAD02"></path><path d="M112.938 150.185C114.357 150.95 114.347 151.912 112.716 152.78L111.287 153.545C109.626 154.432 107.854 154.422 106.435 153.666C105.015 152.901 104.985 151.949 106.646 151.062L108.076 150.297C109.706 149.42 111.518 149.42 112.938 150.185ZM107.482 151.557C106.415 152.126 106.243 152.724 107.21 153.237C108.186 153.76 109.314 153.657 110.361 153.097L111.881 152.285C112.938 151.725 113.069 151.09 112.153 150.605C111.216 150.101 110.039 150.194 109.002 150.745L107.482 151.557Z" fill="#FFAD02"></path><path d="M118.374 153.088C119.793 153.853 119.783 154.814 118.152 155.682L116.723 156.448C115.062 157.334 113.29 157.325 111.871 156.569C110.451 155.804 110.421 154.852 112.082 153.965L113.512 153.2C115.142 152.332 116.954 152.332 118.374 153.088ZM112.918 154.469C111.851 155.038 111.68 155.636 112.646 156.149C113.622 156.672 114.75 156.569 115.797 156.009L117.317 155.197C118.374 154.628 118.505 154.002 117.589 153.517C116.652 153.013 115.475 153.106 114.438 153.657L112.918 154.469Z" fill="#FFAD02"></path><path d="M123.81 156C125.229 156.765 125.219 157.726 123.588 158.594L122.159 159.36C120.498 160.246 118.726 160.237 117.307 159.481C115.887 158.716 115.857 157.764 117.518 156.877L118.948 156.112C120.578 155.244 122.38 155.244 123.81 156ZM118.354 157.381C117.287 157.95 117.116 158.548 118.082 159.061C119.058 159.584 120.186 159.481 121.233 158.921L122.753 158.109C123.81 157.549 123.941 156.914 123.025 156.429C122.088 155.925 120.911 156.018 119.874 156.569L118.354 157.381Z" fill="#FFAD02"></path><path d="M126.991 162.608L126.91 162.654C125.874 163.205 124.454 163.158 123.246 162.645L122.31 163.149L121.505 162.72L122.431 162.225C121.273 161.46 121.293 160.61 122.632 159.892L122.844 159.78L123.729 160.256L123.558 160.349C122.713 160.806 122.622 161.301 123.266 161.777L125.421 160.62C124.565 159.873 124.303 159.276 125.34 158.716L125.39 158.688C126.327 158.184 127.746 158.258 128.894 158.753L129.82 158.258L130.625 158.688L129.679 159.192C130.575 159.836 130.655 160.592 129.588 161.161L129.256 161.338L128.37 160.862L128.642 160.722C129.276 160.386 129.256 160.004 128.833 159.64L126.88 160.685C127.786 161.441 128.018 162.066 126.991 162.608ZM126.296 160.144L128.078 159.192C127.444 158.949 126.749 158.921 126.276 159.173C125.743 159.462 125.884 159.761 126.296 160.144ZM126.035 162.169C126.548 161.898 126.447 161.562 126.035 161.152L124.082 162.197C124.817 162.468 125.551 162.421 126.035 162.169Z" fill="#FFAD02"></path><path d="M74.1812 146.825L115.757 169.076C117.659 170.093 120.78 170.093 122.682 169.076L141.799 158.837C142.665 158.37 143.138 157.773 143.208 157.157V158.324C143.218 158.436 143.218 158.538 143.208 158.65V158.66C143.128 159.276 142.665 159.873 141.799 160.34L122.682 170.578C120.78 171.596 117.659 171.596 115.757 170.578L74.1812 148.328C73.2148 147.805 72.7417 147.124 72.7517 146.442V144.977C72.7517 145.649 73.2249 146.321 74.1812 146.825Z" fill="url(#paint24_linear)"></path><path class="secondCard" opacity="0" d="M122.682 169.085C120.78 170.102 117.659 170.102 115.757 169.085L74.1812 146.834C72.2786 145.817 72.2786 144.146 74.1812 143.129L93.2978 132.89C95.2004 131.873 98.3211 131.873 100.224 132.89L141.799 155.141C143.702 156.158 143.702 157.829 141.799 158.846L122.682 169.085Z" fill="#333366"></path><path opacity="0.85" d="M74.1812 146.825L115.757 169.076C117.659 170.093 120.78 170.093 122.682 169.076L141.799 158.837C142.665 158.37 143.138 157.773 143.208 157.157V158.324C143.218 158.436 143.218 158.538 143.208 158.65V158.66C143.128 159.276 142.665 159.873 141.799 160.34L122.682 170.578C120.78 171.596 117.659 171.596 115.757 170.578L74.1812 148.328C73.2148 147.805 72.7417 147.124 72.7517 146.442V144.977C72.7517 145.649 73.2249 146.321 74.1812 146.825Z" fill="#333366"></path><defs><linearGradient id="paint0_linear" x1="63.1187" y1="37.4829" x2="120.166" y2="144.055" gradientUnits="userSpaceOnUse"><stop stop-color="white"></stop><stop offset="0.4487" stop-color="#F1F1F6"></stop></linearGradient><linearGradient id="paint1_linear" x1="6.55529" y1="119.833" x2="198.276" y2="119.833" gradientUnits="userSpaceOnUse"><stop stop-color="#C4CAE8"></stop><stop offset="0.3425" stop-color="#D5D9EF"></stop><stop offset="1" stop-color="white"></stop></linearGradient><linearGradient id="paint2_linear" x1="0.00412733" y1="135.391" x2="190.075" y2="135.391" gradientUnits="userSpaceOnUse"><stop offset="0.2697" stop-color="#807CFB"></stop><stop offset="0.2974" stop-color="#7D79F7"></stop><stop offset="0.3241" stop-color="#736FEC"></stop><stop offset="0.3505" stop-color="#6460D8"></stop><stop offset="0.3765" stop-color="#4D49BD"></stop><stop offset="0.3876" stop-color="#423EAF"></stop></linearGradient><linearGradient id="paint3_linear" x1="0.00412733" y1="135.391" x2="190.075" y2="135.391" gradientUnits="userSpaceOnUse"><stop offset="0.2697" stop-color="#807CFB"></stop><stop offset="0.2974" stop-color="#7D79F7"></stop><stop offset="0.3241" stop-color="#736FEC"></stop><stop offset="0.3505" stop-color="#6460D8"></stop><stop offset="0.3765" stop-color="#4D49BD"></stop><stop offset="0.3876" stop-color="#423EAF"></stop></linearGradient><linearGradient id="paint4_linear" x1="97.8417" y1="108.278" x2="129.862" y2="108.278" gradientUnits="userSpaceOnUse"><stop offset="0.184" stop-color="#A3A9D0"></stop><stop offset="0.4748" stop-color="#C1C5DF"></stop><stop offset="1" stop-color="white"></stop></linearGradient><linearGradient id="paint5_linear" x1="91.5309" y1="110.624" x2="122.896" y2="110.624" gradientUnits="userSpaceOnUse"><stop stop-color="#FD9009"></stop><stop offset="1" stop-color="#DD3B10"></stop></linearGradient><linearGradient id="paint6_linear" x1="102.373" y1="107.307" x2="109.258" y2="107.307" gradientUnits="userSpaceOnUse"><stop stop-color="#FD9009"></stop><stop offset="1" stop-color="#DD3B10"></stop></linearGradient><linearGradient id="paint7_linear" x1="91.531" y1="82.9477" x2="122.896" y2="82.9477" gradientUnits="userSpaceOnUse"><stop stop-color="#FFF1B5"></stop><stop offset="0.0689" stop-color="#FFF5CC"></stop><stop offset="0.1569" stop-color="#FFFAE3"></stop><stop offset="0.2526" stop-color="#FFFDF3"></stop><stop offset="0.3609" stop-color="#FFFEFC"></stop><stop offset="0.5085" stop-color="white"></stop><stop offset="0.6401" stop-color="#FFFEFC"></stop><stop offset="0.7477" stop-color="#FFFCF2"></stop><stop offset="0.8468" stop-color="#FFF9E1"></stop><stop offset="0.9402" stop-color="#FFF5C9"></stop><stop offset="1" stop-color="#FFF1B5"></stop></linearGradient><linearGradient id="paint8_linear" x1="190.171" y1="70.9289" x2="0.100484" y2="70.9289" gradientUnits="userSpaceOnUse"><stop offset="0.2697" stop-color="#807CFB"></stop><stop offset="0.2974" stop-color="#7D79F7"></stop><stop offset="0.3241" stop-color="#736FEC"></stop><stop offset="0.3505" stop-color="#6460D8"></stop><stop offset="0.3765" stop-color="#4D49BD"></stop><stop offset="0.3876" stop-color="#423EAF"></stop></linearGradient><linearGradient id="paint9_linear" x1="190.171" y1="70.9289" x2="0.100484" y2="70.9289" gradientUnits="userSpaceOnUse"><stop offset="0.2697" stop-color="#423EAF"></stop><stop offset="0.2974" stop-color="#4541B3"></stop><stop offset="0.3241" stop-color="#4F4BBE"></stop><stop offset="0.3505" stop-color="#5E5AD2"></stop><stop offset="0.3765" stop-color="#7571ED"></stop><stop offset="0.3876" stop-color="#807CFB"></stop></linearGradient><linearGradient id="paint10_linear" x1="91.5309" y1="86.0055" x2="122.896" y2="86.0055" gradientUnits="userSpaceOnUse"><stop stop-color="#FD9009"></stop><stop offset="1" stop-color="#DD3B10"></stop></linearGradient><linearGradient id="paint11_linear" x1="102.373" y1="82.6887" x2="109.258" y2="82.6887" gradientUnits="userSpaceOnUse"><stop stop-color="#FD9009"></stop><stop offset="1" stop-color="#DD3B10"></stop></linearGradient><linearGradient id="paint12_linear" x1="91.531" y1="82.9465" x2="122.896" y2="82.9465" gradientUnits="userSpaceOnUse"><stop stop-color="#FFF1B5"></stop><stop offset="0.0689" stop-color="#FFF5CC"></stop><stop offset="0.1569" stop-color="#FFFAE3"></stop><stop offset="0.2526" stop-color="#FFFDF3"></stop><stop offset="0.3609" stop-color="#FFFEFC"></stop><stop offset="0.5085" stop-color="white"></stop><stop offset="0.6401" stop-color="#FFFEFC"></stop><stop offset="0.7477" stop-color="#FFFCF2"></stop><stop offset="0.8468" stop-color="#FFF9E1"></stop><stop offset="0.9402" stop-color="#FFF5C9"></stop><stop offset="1" stop-color="#FFF1B5"></stop></linearGradient><linearGradient id="paint13_linear" x1="119.844" y1="71.2847" x2="154.404" y2="71.2847" gradientUnits="userSpaceOnUse"><stop stop-color="#C4CAE9"></stop><stop offset="1" stop-color="#DAE0F5"></stop></linearGradient><linearGradient id="paint14_linear" x1="118.06" y1="73.2203" x2="152.614" y2="73.2203" gradientUnits="userSpaceOnUse"><stop stop-color="#5652CC"></stop><stop offset="0.3891" stop-color="#362E94"></stop></linearGradient><linearGradient id="paint15_linear" x1="7.67666" y1="27.0327" x2="122.158" y2="27.0327" gradientUnits="userSpaceOnUse"><stop offset="0.00561798" stop-color="#5652CC"></stop><stop offset="0.1203" stop-color="#4F4CBC"></stop><stop offset="0.3428" stop-color="#3E3B94"></stop><stop offset="0.6509" stop-color="#232152"></stop><stop offset="1"></stop></linearGradient><linearGradient id="paint16_linear" x1="97.8417" y1="57.1739" x2="129.862" y2="57.1739" gradientUnits="userSpaceOnUse"><stop offset="0.184" stop-color="#A3A9D0"></stop><stop offset="0.4748" stop-color="#C1C5DF"></stop><stop offset="1" stop-color="white"></stop></linearGradient><linearGradient id="paint17_linear" x1="91.5309" y1="59.5193" x2="122.896" y2="59.5193" gradientUnits="userSpaceOnUse"><stop stop-color="#FD9009"></stop><stop offset="1" stop-color="#DD3B10"></stop></linearGradient><linearGradient id="paint18_linear" x1="102.373" y1="56.2025" x2="109.258" y2="56.2025" gradientUnits="userSpaceOnUse"><stop stop-color="#FD9009"></stop><stop offset="1" stop-color="#DD3B10"></stop></linearGradient><linearGradient id="paint19_linear" x1="165.357" y1="125.809" x2="189.711" y2="125.809" gradientUnits="userSpaceOnUse"><stop offset="0.4525" stop-color="#C4C9E4"></stop><stop offset="1" stop-color="white"></stop></linearGradient><linearGradient id="paint20_linear" x1="158.938" y1="119.898" x2="182.908" y2="119.898" gradientUnits="userSpaceOnUse"><stop stop-color="#A3A9D0"></stop><stop offset="1" stop-color="#CED3F8"></stop></linearGradient><linearGradient id="paint21_linear" x1="180.338" y1="132.602" x2="157.281" y2="116.544" gradientUnits="userSpaceOnUse"><stop stop-color="#A3A9D0"></stop><stop offset="1" stop-color="#CED3F8"></stop></linearGradient><linearGradient id="paint22_linear" x1="166.299" y1="124.72" x2="172.939" y2="124.72" gradientUnits="userSpaceOnUse"><stop stop-color="#CED3F8"></stop><stop offset="1" stop-color="#A3A9D0"></stop></linearGradient><linearGradient id="paint23_linear" x1="1.48976" y1="61.7652" x2="71.9667" y2="61.7652" gradientUnits="userSpaceOnUse"><stop offset="0.2528" stop-color="#FFAD02"></stop><stop offset="0.3479" stop-color="#FD8908"></stop><stop offset="0.405" stop-color="#FC780B"></stop></linearGradient><linearGradient id="paint24_linear" x1="72.7514" y1="158.162" x2="143.229" y2="158.162" gradientUnits="userSpaceOnUse"><stop offset="0.603" stop-color="#5652CC"></stop><stop offset="0.6829" stop-color="#4039A5"></stop><stop offset="0.7274" stop-color="#362E94"></stop></linearGradient></defs></svg> 