<?xml version="1.0" encoding="UTF-8"?> <svg xmlns="http://www.w3.org/2000/svg" class="phone" width="199" height="180" viewBox="0 0 1616 1582" fill="none"><path d="M841.63 220.33C833.76 215.78 821 215.78 813.12 220.33C805.25 224.88 805.25 232.24 813.12 236.79C820.99 241.34 833.76 241.34 841.63 236.79C849.5 232.24 849.5 224.87 841.63 220.33Z" fill="white"></path><path d="M771.89 260.6C764.02 256.05 751.26 256.05 743.38 260.6C735.51 265.14 735.51 272.51 743.38 277.06C751.25 281.61 764.01 281.61 771.89 277.06C779.76 272.51 779.76 265.14 771.89 260.6Z" fill="white"></path><path d="M702.14 300.87C694.27 296.32 681.51 296.32 673.64 300.87C665.76 305.41 665.76 312.78 673.64 317.32C681.51 321.87 694.27 321.87 702.14 317.32C710.01 312.78 710.01 305.41 702.14 300.87Z" fill="white"></path><path d="M632.4 341.13C624.53 336.58 611.76 336.58 603.89 341.13C596.02 345.68 596.02 353.05 603.89 357.59C611.77 362.14 624.53 362.14 632.4 357.59C640.27 353.05 640.27 345.68 632.4 341.13Z" fill="white"></path><path d="M562.66 381.4C554.78 376.85 542.03 376.85 534.15 381.4C526.29 385.95 526.29 393.31 534.15 397.86C542.03 402.41 554.78 402.41 562.66 397.86C570.53 393.32 570.53 385.95 562.66 381.4Z" fill="white"></path><path d="M961.36 1215.95C990.14 1232.56 1037.25 1232.55 1066.03 1215.94L1527.96 949.24C1556.74 932.62 1556.74 905.43 1527.96 888.81L589.3 346.88C560.51 330.26 513.4 330.26 484.63 346.88L22.6997 613.57C-6.09029 630.2 -6.0903 657.39 22.6897 674L961.36 1215.95Z" fill="url(#paint0_linear_phone)"></path><path d="M1593.8 883.92L1127.86 614.91C1098.82 598.15 1051.32 598.14 1022.28 614.91L75.4698 1161.56C46.4398 1178.32 46.4398 1205.75 75.4698 1222.51L541.41 1491.52C541.76 1491.72 542.15 1491.9 542.5 1492.09V1504.11H595.09V1504.08C613.93 1503.95 632.7 1499.78 646.99 1491.53L1593.8 944.88C1622.84 928.11 1622.84 900.68 1593.8 883.92Z" fill="url(#paint1_linear_phone)"></path><path d="M0.320006 1150.57V1151.21C0.320006 1151 0.360006 1150.79 0.320006 1150.57ZM1548.74 875.75C1548.74 875.86 1548.77 875.97 1548.77 876.07C1548.76 876.07 1548.76 875.75 1548.74 875.75ZM1527.17 906.29L588.5 1448.24C559.72 1464.86 512.62 1464.84 483.83 1448.23L21.8998 1181.54C7.55984 1173.25 0.370006 1162.35 0.320006 1151.44V1194.32C0.160006 1205.41 7.31984 1216.53 21.8998 1224.95L483.83 1491.64C512.62 1508.27 559.72 1508.27 588.5 1491.65L1527.17 949.71C1541.57 941.39 1548.76 930.44 1548.76 919.48V876.09C1548.76 887.03 1541.57 897.99 1527.17 906.29Z" fill="url(#paint2_linear_phone)"></path><path d="M588.5 1448.24C559.72 1464.86 512.62 1464.84 483.83 1448.23L21.8999 1181.54C-6.88006 1164.92 -6.88006 1137.72 21.8999 1121.11L960.57 579.16C989.36 562.54 1036.46 562.54 1065.25 579.16L1527.18 845.86C1555.97 862.49 1555.97 889.68 1527.18 906.29L588.5 1448.24Z" fill="#F1F1F6"></path><path d="M0.320006 1150.57V1151.21C0.320006 1151 0.360006 1150.79 0.320006 1150.57ZM1548.74 875.75C1548.74 875.86 1548.77 875.97 1548.77 876.07C1548.76 876.07 1548.76 875.75 1548.74 875.75ZM1527.17 906.29L588.5 1448.24C559.72 1464.86 512.62 1464.84 483.83 1448.23L21.8998 1181.54C7.55984 1173.25 0.370006 1162.35 0.320006 1151.44V1194.32C0.160006 1205.41 7.31984 1216.53 21.8998 1224.95L483.83 1491.64C512.62 1508.27 559.72 1508.27 588.5 1491.65L1527.17 949.71C1541.57 941.39 1548.76 930.44 1548.76 919.48V876.09C1548.76 887.03 1541.57 897.99 1527.17 906.29Z" fill="url(#paint3_linear_phone)"></path><path opacity="0.85" d="M0.320006 1150.57V1151.21C0.320006 1151 0.360006 1150.79 0.320006 1150.57ZM1548.74 875.75C1548.74 875.86 1548.77 875.97 1548.77 876.07C1548.76 876.07 1548.76 875.75 1548.74 875.75ZM1527.17 906.29L588.5 1448.24C559.72 1464.86 512.62 1464.84 483.83 1448.23L21.8998 1181.54C7.55984 1173.25 0.370006 1162.35 0.320006 1151.44V1194.32C0.160006 1205.41 7.31984 1216.53 21.8998 1224.95L483.83 1491.64C512.62 1508.27 559.72 1508.27 588.5 1491.65L1527.17 949.71C1541.57 941.39 1548.76 930.44 1548.76 919.48V876.09C1548.76 887.03 1541.57 897.99 1527.17 906.29Z" fill="#333366"></path><path d="M603.72 1409.23L89.45 1112.32L972.78 602.34L1487.04 899.24L603.72 1409.23Z" fill="white"></path><path d="M1202.6 694.31L1327.74 766.55L1319.68 771.2L1194.55 698.95L1202.6 694.31Z" fill="#BBC0E6"></path><path class="phone_btn2" d="M338.47 1265.46C317.07 1253.11 282.37 1253.1 260.96 1265.46C239.55 1277.81 239.56 1297.85 260.96 1310.21C282.37 1322.56 317.07 1322.57 338.47 1310.21C359.88 1297.85 359.88 1277.81 338.47 1265.46ZM327.61 1303.93C312.22 1312.83 287.24 1312.83 271.84 1303.93C256.44 1295.04 256.44 1280.63 271.84 1271.73C287.25 1262.83 312.22 1262.83 327.61 1271.73C343.01 1280.62 343.02 1295.04 327.61 1303.93Z" fill="#CED3F8"></path><path d="M1527.17 845.86L1065.24 579.16C1036.46 562.54 989.35 562.54 960.56 579.16L447.09 875.62L961.36 1172.53C990.14 1189.14 1037.25 1189.13 1066.03 1172.52L1527.17 906.28C1555.96 889.68 1555.96 862.49 1527.17 845.86Z" fill="#F1F1F6"></path><path d="M1019.72 898.24C992.44 882.5 956.2 875.25 920.6 876.3H864.79V885.45C854.19 888.8 844.21 893.05 835.25 898.24C784.5 927.75 784.79 975.6 835.87 1005.1C844.67 1010.18 854.44 1014.32 864.79 1017.63V1027.18H931.73C963.92 1026.64 995.85 1019.34 1020.33 1005.11C1071.09 975.6 1070.85 927.75 1019.72 898.24Z" fill="url(#paint4_linear_phone)"></path><path d="M745.96 917.22C745.96 898.34 758.43 879.47 783.38 865.06C808.33 850.65 841.02 843.45 873.72 843.45C906.41 843.45 939.1 850.66 964.05 865.06C989 879.46 1001.47 898.33 1001.47 917.22C1001.48 936.1 989 954.97 964.05 969.38C939.11 983.77 906.42 990.97 873.73 990.97C841.04 990.97 808.33 983.77 783.39 969.37C758.44 954.97 745.97 936.1 745.96 917.22Z" fill="#FFD03E"></path><path d="M964.05 969.38C939.11 983.77 906.42 990.97 873.73 990.97C841.04 990.97 808.33 983.77 783.39 969.37C758.44 954.97 745.97 936.1 745.95 917.22V953.64C745.96 972.5 758.43 991.38 783.39 1005.78C808.33 1020.18 841.03 1027.39 873.73 1027.39C906.42 1027.39 939.11 1020.19 964.05 1005.79C989 991.39 1001.48 972.5 1001.47 953.63V917.22C1001.48 936.1 989.01 954.97 964.05 969.38Z" fill="url(#paint5_linear_phone)"></path><path d="M800.36 959.57C820.62 971.28 847.18 977.13 873.73 977.13C900.28 977.13 926.83 971.28 947.09 959.59C965.78 948.8 975.83 934.91 977.27 920.78C975.83 906.65 965.78 892.77 947.09 881.97C926.83 870.28 900.28 864.43 873.72 864.43C847.17 864.43 820.62 870.28 800.36 881.97C781.67 892.76 771.63 906.64 770.17 920.78C771.62 934.89 781.66 948.79 800.36 959.57Z" fill="#FFAD02"></path><path d="M800.35 881.96C820.62 870.27 847.16 864.42 873.71 864.42C900.27 864.42 926.82 870.27 947.08 881.96C965.77 892.76 975.82 906.64 977.26 920.77C977.38 919.59 977.46 918.4 977.46 917.22C977.46 901.88 967.33 886.56 947.08 874.87C926.82 863.17 900.27 857.31 873.71 857.31C847.16 857.31 820.61 863.17 800.35 874.87C780.08 886.56 769.96 901.89 769.96 917.22C769.96 918.4 770.04 919.58 770.16 920.77C771.62 906.63 781.66 892.75 800.35 881.96Z" fill="#EF4E16"></path><path d="M924.83 901.99L934.65 896.32V889.22L924.83 894.89V901.99Z" fill="#EF4E16"></path><path d="M879.56 913.85C875.9 911.73 873.88 908.93 873.88 905.94C873.88 902.95 875.9 900.14 879.56 898.03C887.11 893.67 899.41 893.67 906.97 898.03C914.52 902.38 914.52 909.49 906.97 913.85L919.41 921.03C931.67 913.94 933.46 903.09 924.83 894.89L934.65 889.22L922.22 882.04L912.4 887.72C898.2 882.74 879.39 883.77 867.13 890.86C860.14 894.89 856.3 900.25 856.3 905.95C856.29 911.64 860.14 917 867.13 921.03C874.68 925.4 874.68 932.49 867.13 936.86C859.57 941.22 847.28 941.22 839.72 936.86C832.16 932.49 832.16 925.4 839.72 921.04L827.3 913.86C815.02 920.94 813.24 931.79 821.84 940L812.8 945.22L825.23 952.4L834.28 947.17C848.49 952.15 867.29 951.12 879.56 944.03C893.98 935.71 893.98 922.16 879.56 913.85Z" fill="#FFD03E"></path><path d="M812.81 952.31L825.24 959.49V952.39L812.81 945.21V952.31Z" fill="#FD9009"></path><path d="M825.24 959.49L834.29 954.26V947.16L825.24 952.39V959.49Z" fill="#EF4E16"></path><path d="M906.97 920.94L919.41 928.12V921.02L906.97 913.85V920.94Z" fill="#FD9009"></path><path d="M839.73 928.12V921.02C834.37 924.12 832.83 928.58 835.08 932.47C836 930.89 837.54 929.39 839.73 928.12Z" fill="#EF4E16"></path><path d="M816.51 928.58L816.53 936.57L816.55 936.56C816.63 938.46 817.15 940.33 818.09 942.16L821.85 939.99C818.19 936.5 816.44 932.55 816.54 928.61L816.51 928.58Z" fill="#FD9009"></path><path d="M867.13 928.12C869.32 929.39 870.86 930.9 871.78 932.48C874.02 928.59 872.49 924.12 867.13 921.02C860.15 917 856.3 911.64 856.3 905.94V913.03C856.3 918.73 860.15 924.09 867.13 928.12Z" fill="#FD9009"></path><path d="M890.37 928.9V928.75H890.36C890.36 928.8 890.37 928.84 890.37 928.9Z" fill="#FD9009"></path><path d="M930.16 905.93C930.17 911.39 926.61 916.87 919.41 921.03V928.13C926.8 923.87 930.35 918.23 930.15 912.62L930.18 912.66V905.94H930.16V905.93Z" fill="#EF4E16"></path><path d="M879.57 944.02C867.3 951.11 848.5 952.13 834.29 947.16V954.26C848.5 959.24 867.3 958.21 879.57 951.12C886.72 946.99 890.31 941.58 890.37 936.17L890.38 936.18V928.97C890.35 934.42 886.76 939.87 879.57 944.02Z" fill="url(#paint6_linear_phone)"></path><path d="M906.97 898.03C899.41 893.67 887.12 893.67 879.56 898.03C875.9 900.14 873.88 902.95 873.88 905.94C873.88 907.16 874.24 908.35 874.89 909.49C875.84 907.87 877.41 906.37 879.56 905.13C887.11 900.76 899.41 900.76 906.97 905.12C909.16 906.4 910.7 907.89 911.62 909.49C913.87 905.6 912.33 901.11 906.97 898.03Z" fill="#EF4E16"></path><path d="M1001.48 504.6H745.96V953.64H1001.48V504.6Z" fill="url(#paint7_linear_phone)"></path><path d="M1549.55 584.8V584.16C1549.5 584.38 1549.55 584.58 1549.55 584.8ZM1.1001 309.65C1.1001 309.55 1.12988 309.44 1.12988 309.33C1.09988 309.33 1.1001 309.65 1.1001 309.65ZM1.1001 309.66V353.06C1.1001 364.01 8.29994 374.97 22.6899 383.28L961.36 925.22C990.14 941.84 1037.25 941.84 1066.03 925.21L1527.96 658.53C1542.53 650.11 1549.7 638.99 1549.54 627.89V585.01C1549.49 595.92 1542.31 606.83 1527.96 615.11L1066.03 881.81C1037.25 898.42 990.14 898.43 961.36 881.82L22.6899 339.87C8.29994 331.57 1.1001 320.61 1.1001 309.66Z" fill="url(#paint8_linear_phone)"></path><path d="M961.36 881.82C990.14 898.43 1037.25 898.42 1066.03 881.81L1527.96 615.11C1556.74 598.5 1556.74 571.3 1527.96 554.69L589.3 12.75C560.51 -3.86997 513.4 -3.86997 484.63 12.75L22.7 279.44C-6.09004 296.07 -6.09005 323.26 22.6899 339.87L961.36 881.82Z" fill="#F6F6FB"></path><path d="M1549.55 584.8V584.16C1549.5 584.38 1549.55 584.58 1549.55 584.8ZM1.1001 309.65C1.1001 309.55 1.12988 309.44 1.12988 309.33C1.09988 309.33 1.1001 309.65 1.1001 309.65ZM1.1001 309.66V353.06C1.1001 364.01 8.29994 374.97 22.6899 383.28L961.36 925.22C990.14 941.84 1037.25 941.84 1066.03 925.21L1527.96 658.53C1542.53 650.11 1549.7 638.99 1549.54 627.89V585.01C1549.49 595.92 1542.31 606.83 1527.96 615.11L1066.03 881.81C1037.25 898.42 990.14 898.43 961.36 881.82L22.6899 339.87C8.29994 331.57 1.1001 320.61 1.1001 309.66Z" fill="url(#paint9_linear_phone)"></path><path opacity="0.85" d="M1549.55 584.8V584.16C1549.5 584.38 1549.55 584.58 1549.55 584.8ZM1.1001 309.65C1.1001 309.55 1.12988 309.44 1.12988 309.33C1.09988 309.33 1.1001 309.65 1.1001 309.65ZM1.1001 309.66V353.06C1.1001 364.01 8.29994 374.97 22.6899 383.28L961.36 925.22C990.14 941.84 1037.25 941.84 1066.03 925.21L1527.96 658.53C1542.53 650.11 1549.7 638.99 1549.54 627.89V585.01C1549.49 595.92 1542.31 606.83 1527.96 615.11L1066.03 881.81C1037.25 898.42 990.14 898.43 961.36 881.82L22.6899 339.87C8.29994 331.57 1.1001 320.61 1.1001 309.66Z" fill="#333366"></path><path d="M961.36 881.82C990.14 898.43 1037.25 898.42 1066.03 881.81L1527.96 615.11C1556.74 598.5 1556.74 571.3 1527.96 554.69L589.3 12.75C560.51 -3.86997 513.4 -3.86997 484.63 12.75L22.7 279.44C-6.09004 296.07 -6.09005 323.26 22.6899 339.87L961.36 881.82Z" fill="#F6F6FB"></path><path d="M946.15 842.82L1460.41 545.9L577.09 35.92L62.8201 332.83L946.15 842.82Z" fill="#DAE0F5"></path><path d="M347.26 127.89L222.13 200.14L230.18 204.78L355.31 132.53L347.26 127.89Z" fill="#BBC0E6"></path><path class="phone_btn1" d="M1211.39 743.79C1232.79 756.15 1267.49 756.14 1288.9 743.79C1310.3 731.43 1310.31 711.39 1288.9 699.04C1267.49 686.68 1232.79 686.68 1211.39 699.04C1189.98 711.39 1189.98 731.43 1211.39 743.79ZM1222.26 705.31C1237.65 696.41 1262.63 696.41 1278.03 705.31C1293.42 714.2 1293.42 728.62 1278.03 737.51C1262.63 746.4 1237.65 746.4 1222.26 737.51C1206.84 728.62 1206.85 714.21 1222.26 705.31Z" fill="#CED3F8"></path><g opacity="0.5"><g opacity="0.5"><path opacity="0.5" d="M745.96 700.9C745.96 682.02 758.43 663.14 783.38 648.74C808.33 634.34 841.02 627.13 873.72 627.13C906.41 627.13 939.1 634.34 964.05 648.74C989 663.14 1001.47 682.01 1001.47 700.9C1001.48 719.78 989 738.65 964.05 753.06C939.11 767.46 906.42 774.65 873.73 774.65C841.04 774.65 808.33 767.45 783.39 753.05C758.44 738.65 745.97 719.78 745.96 700.9Z" fill="#FFD03E"></path><path opacity="0.5" d="M964.05 753.06C939.11 767.46 906.42 774.65 873.73 774.65C841.04 774.65 808.33 767.45 783.39 753.05C758.44 738.65 745.97 719.77 745.95 700.9V737.32C745.96 756.19 758.43 775.06 783.39 789.47C808.33 803.87 841.03 811.07 873.73 811.07C906.42 811.07 939.11 803.88 964.05 789.47C989 775.06 1001.48 756.18 1001.47 737.31V700.9C1001.48 719.78 989.01 738.65 964.05 753.06Z" fill="url(#paint10_linear_phone)"></path><path opacity="0.5" d="M800.36 743.25C820.62 754.95 847.18 760.8 873.73 760.8C900.28 760.8 926.83 754.95 947.09 743.26C965.78 732.47 975.83 718.58 977.27 704.45C975.83 690.32 965.78 676.44 947.09 665.64C926.83 653.94 900.28 648.09 873.72 648.09C847.17 648.09 820.62 653.94 800.36 665.64C781.67 676.43 771.63 690.31 770.17 704.44C771.62 718.57 781.66 732.47 800.36 743.25Z" fill="#FFAD02"></path><path opacity="0.5" d="M800.35 665.64C820.62 653.94 847.16 648.09 873.71 648.09C900.27 648.09 926.82 653.94 947.08 665.64C965.77 676.44 975.82 690.32 977.26 704.45C977.38 703.27 977.46 702.08 977.46 700.9C977.46 685.56 967.33 670.24 947.08 658.55C926.82 646.85 900.27 641 873.71 641C847.16 641 820.61 646.86 800.35 658.55C780.08 670.24 769.96 685.57 769.96 700.91C769.96 702.09 770.04 703.27 770.16 704.45C771.62 690.32 781.66 676.44 800.35 665.64Z" fill="#EF4E16"></path></g><g opacity="0.5"><path opacity="0.5" d="M924.83 685.67L934.65 680V672.9L924.83 678.57V685.67Z" fill="#EF4E16"></path><path opacity="0.5" d="M879.56 697.53C875.9 695.42 873.88 692.61 873.88 689.62C873.88 686.63 875.9 683.82 879.56 681.71C887.11 677.35 899.41 677.35 906.97 681.71C914.52 686.07 914.52 693.17 906.97 697.53L919.41 704.71C931.67 697.62 933.46 686.78 924.83 678.58L934.65 672.91L922.22 665.73L912.4 671.4C898.2 666.43 879.39 667.46 867.13 674.54C860.14 678.57 856.3 683.93 856.3 689.63C856.29 695.32 860.14 700.69 867.13 704.71C874.68 709.07 874.68 716.17 867.13 720.54C859.57 724.9 847.28 724.9 839.72 720.54C832.16 716.17 832.16 709.08 839.72 704.71L827.3 697.53C815.02 704.61 813.24 715.46 821.84 723.67L812.8 728.9L825.23 736.08L834.28 730.85C848.49 735.83 867.29 734.8 879.56 727.71C893.98 719.39 893.98 705.85 879.56 697.53Z" fill="#FFD03E"></path><path opacity="0.5" d="M812.81 735.99L825.24 743.17V736.07L812.81 728.89V735.99Z" fill="#FD9009"></path><path opacity="0.5" d="M825.24 743.17L834.29 737.94V730.84L825.24 736.07V743.17Z" fill="#EF4E16"></path><path opacity="0.5" d="M906.97 704.63L919.41 711.8V704.71L906.97 697.53V704.63Z" fill="#FD9009"></path><path opacity="0.5" d="M839.73 711.8V704.7C834.37 707.8 832.83 712.27 835.08 716.15C836 714.57 837.54 713.07 839.73 711.8Z" fill="#EF4E16"></path><path opacity="0.5" d="M816.51 712.26L816.53 720.26L816.55 720.25C816.63 722.15 817.15 724.02 818.09 725.85L821.85 723.68C818.19 720.2 816.44 716.24 816.54 712.3L816.51 712.26Z" fill="#FD9009"></path><path opacity="0.5" d="M867.13 711.8C869.32 713.07 870.86 714.58 871.78 716.16C874.02 712.27 872.49 707.8 867.13 704.7C860.15 700.67 856.3 695.31 856.3 689.62V696.72C856.3 702.42 860.15 707.77 867.13 711.8Z" fill="#FD9009"></path><path opacity="0.5" d="M890.37 712.58V712.43H890.36C890.36 712.48 890.37 712.53 890.37 712.58Z" fill="#FD9009"></path><path opacity="0.5" d="M930.16 689.61C930.17 695.07 926.61 700.56 919.41 704.71V711.81C926.8 707.55 930.35 701.91 930.15 696.3L930.18 696.34V689.61H930.16Z" fill="#EF4E16"></path><path opacity="0.5" d="M879.57 727.71C867.3 734.79 848.5 735.82 834.29 730.85V737.95C848.5 742.93 867.3 741.9 879.57 734.81C886.72 730.68 890.31 725.27 890.37 719.85L890.38 719.87V712.66C890.35 718.1 886.76 723.56 879.57 727.71Z" fill="url(#paint11_linear_phone)"></path><path opacity="0.5" d="M906.97 681.71C899.41 677.35 887.12 677.35 879.56 681.71C875.9 683.82 873.88 686.64 873.88 689.62C873.88 690.84 874.24 692.03 874.89 693.17C875.84 691.55 877.41 690.05 879.56 688.81C887.11 684.45 899.41 684.45 906.97 688.81C909.16 690.08 910.7 691.58 911.62 693.18C913.87 689.28 912.33 684.79 906.97 681.71Z" fill="#EF4E16"></path></g></g><path d="M1001.48 504.59H745.96V953.62H1001.48V504.59Z" fill="url(#paint12_linear_phone)"></path><path class="phone_send" d="M978.62 638.6L1140.62 545.07C1162.92 532.19 1199.26 532.5 1221.78 545.75C1244.3 559 1244.48 580.19 1222.18 593.06L1060.18 686.58C1037.88 699.46 1001.54 699.16 979.02 685.9C956.49 672.65 956.33 651.47 978.62 638.6Z" fill="#807DFB"></path><path class="phone_screen" d="M62.8198 332.83L577.09 35.92L995.46 277.46L247.91 439.69L62.8198 332.83Z" fill="transparant"></path><path d="M1019.72 449.19C992.44 433.45 956.2 426.2 920.6 427.26H864.79V436.4C854.19 439.75 844.21 444.01 835.25 449.19C784.5 478.71 784.79 526.55 835.87 556.05C844.67 561.13 854.44 565.27 864.79 568.58V578.14H931.73C963.92 577.6 995.85 570.3 1020.33 556.07C1071.09 526.55 1070.85 478.71 1019.72 449.19Z" fill="url(#paint14_linear_phone)"></path><path d="M1516.5 1052.4C1495.77 1036.69 1468.19 1029.47 1441.12 1030.52H1398.67V1039.64C1390.61 1042.97 1383.02 1047.23 1376.2 1052.39C1337.6 1081.83 1337.82 1129.55 1376.67 1158.98C1383.37 1164.05 1390.8 1168.18 1398.67 1171.48V1181.03H1449.58C1474.06 1180.49 1498.34 1173.2 1516.97 1159C1555.59 1129.56 1555.39 1081.84 1516.5 1052.4Z" fill="url(#paint15_linear_phone)"></path><path d="M1464.88 1020.12C1451.54 1006.56 1434.8 996.47 1417.09 990.31C1387.58 980.05 1355.37 980.71 1331.72 994.46C1319.41 1001.62 1310.91 1011.45 1306.26 1022.7L1295.1 1049.69C1299.75 1038.44 1308.26 1028.61 1320.56 1021.46C1335.95 1012.52 1354.98 1009.11 1374.51 1010.65C1403.01 1012.9 1432.61 1025.66 1453.72 1047.11C1477.71 1071.49 1484.68 1100.96 1475.04 1124.3L1486.19 1097.3C1495.83 1073.95 1488.87 1044.49 1464.88 1020.12Z" fill="url(#paint16_linear_phone)"></path><path d="M1461.91 1027.31C1497.47 1063.44 1495.61 1110.74 1457.76 1132.73C1419.92 1154.73 1360.19 1143.23 1324.61 1107.1C1289.04 1070.94 1290.91 1023.66 1328.75 1001.65C1366.6 979.65 1426.32 991.15 1461.91 1027.31Z" fill="#DFE4F4"></path><path d="M1507 1105.86C1503.29 1114.85 1499.58 1123.86 1495.86 1132.86C1490.13 1146.71 1479.64 1158.82 1464.46 1167.66C1417.8 1194.76 1344.43 1180.63 1300.59 1136.1C1271.02 1106.05 1262.44 1069.86 1274.29 1041.16C1278.01 1032.16 1281.73 1023.16 1285.45 1014.16C1273.6 1042.87 1282.17 1079.07 1311.76 1109.11C1355.58 1153.64 1428.96 1167.76 1475.62 1140.66C1490.8 1131.83 1501.29 1119.71 1507 1105.86Z" fill="url(#paint17_linear_phone)"></path><path d="M1480.71 1010.9C1524.54 1055.44 1522.28 1113.53 1475.6 1140.65C1428.94 1167.76 1355.57 1153.64 1311.74 1109.1C1267.88 1064.55 1270.19 1006.46 1316.84 979.35C1363.52 952.24 1436.86 966.35 1480.71 1010.9ZM1327.59 1099.89C1363.14 1136.02 1422.87 1147.52 1460.73 1125.53C1498.58 1103.53 1500.44 1056.24 1464.88 1020.12C1429.3 983.97 1369.57 972.47 1331.72 994.46C1293.87 1016.46 1292 1063.74 1327.59 1099.89Z" fill="white"></path><path d="M1341.69 1082.76L1346.85 1079.75C1342.28 1072.55 1341.28 1064.83 1343.72 1058.3L1340.78 1065.34H1340.8C1338.78 1070.65 1339.08 1076.77 1341.69 1082.76Z" fill="#BBC0E6"></path><path d="M1386.95 1070.87C1390.27 1074.25 1391.88 1078.14 1391.81 1081.73C1396.3 1077.06 1395.74 1069.6 1389.91 1063.68C1383.61 1057.27 1380.29 1049.75 1380.59 1042.49C1380.69 1039.82 1381.29 1037.3 1382.32 1034.99L1382.31 1034.98L1379.5 1041.83L1379.51 1041.82C1378.38 1044.23 1377.72 1046.87 1377.61 1049.67C1377.32 1056.94 1380.64 1064.47 1386.95 1070.87Z" fill="#BBC0E6"></path><path d="M1364.42 1058.76C1360.71 1060.91 1358.81 1064.33 1358.74 1068.08C1359.5 1067.28 1360.4 1066.57 1361.45 1065.94L1364.42 1058.76Z" fill="#A3A9D0"></path><path d="M1444.88 1040.66C1445.75 1042.04 1446.48 1043.43 1447.09 1044.84L1451.33 1042.38L1454.29 1035.19L1444.88 1040.66Z" fill="#A3A9D0"></path><path d="M1427.32 1061.65L1424.35 1068.84L1435.54 1080.21L1438.52 1073.02L1427.32 1061.65Z" fill="#BBC0E6"></path><path d="M1438.52 1073.02L1435.54 1080.21C1439.92 1077.67 1442.97 1074.19 1444.68 1070.22H1444.69L1444.7 1070.19C1444.72 1070.14 1444.74 1070.11 1444.76 1070.06L1447.69 1062.96C1445.98 1066.97 1442.92 1070.47 1438.52 1073.02Z" fill="#A3A9D0"></path><path d="M1454.28 1035.19L1444.87 1040.66C1452.47 1052.67 1450.25 1066.19 1438.51 1073.02L1427.31 1061.65C1434.56 1057.45 1434.91 1048.4 1428.11 1041.47C1421.29 1034.54 1409.86 1032.35 1402.62 1036.55C1399.09 1038.59 1397.09 1041.82 1396.93 1045.63C1396.78 1049.45 1398.51 1053.4 1401.82 1056.75C1414.81 1069.94 1414.11 1087.2 1400.31 1095.22C1388.54 1102.05 1371 1100.02 1358.02 1091.12L1349.34 1096.17L1338.15 1084.8L1346.84 1079.75C1339.23 1067.74 1341.44 1054.22 1353.21 1047.38L1364.4 1058.76C1357.13 1062.97 1356.78 1072.02 1363.6 1078.95C1370.4 1085.87 1381.83 1088.07 1389.1 1083.85C1396.34 1079.64 1396.7 1070.59 1389.89 1063.68C1383.59 1057.27 1380.27 1049.75 1380.57 1042.49C1380.86 1035.23 1384.7 1029.08 1391.42 1025.17C1403.16 1018.35 1420.7 1020.39 1433.67 1029.28L1443.08 1023.81L1454.28 1035.19Z" fill="white"></path><path d="M1338.16 1084.81L1335.18 1092L1346.38 1103.37L1349.35 1096.18L1338.16 1084.81Z" fill="#BBC0E6"></path><path d="M1349.35 1096.18L1346.38 1103.37L1355.07 1098.33L1358.03 1091.12L1349.35 1096.18Z" fill="#A3A9D0"></path><path d="M1407.73 1088.34C1407.72 1088.35 1407.72 1088.36 1407.72 1088.37C1407.19 1089.15 1406.6 1089.88 1405.97 1090.6C1404.42 1092.34 1402.56 1093.92 1400.31 1095.23C1388.54 1102.06 1371 1100.03 1358.02 1091.13L1355.06 1098.33C1368.03 1107.21 1385.56 1109.25 1397.33 1102.42C1401.44 1100.03 1404.35 1096.82 1406.1 1093.15L1406.11 1093.2L1409.16 1085.84C1408.76 1086.7 1408.28 1087.54 1407.73 1088.34Z" fill="url(#paint18_linear_phone)"></path><path d="M1430.07 1059.49C1434.52 1054.82 1433.92 1047.37 1428.12 1041.47C1421.3 1034.54 1409.87 1032.35 1402.63 1036.55C1399.1 1038.59 1397.1 1041.82 1396.94 1045.63C1396.94 1045.71 1396.95 1045.79 1396.95 1045.87C1397.72 1045.07 1398.61 1044.35 1399.66 1043.74C1406.89 1039.53 1418.32 1041.73 1425.15 1048.66C1428.35 1051.91 1429.95 1055.64 1430.01 1059.1L1430.07 1059.49Z" fill="#A3A9D0"></path><path class="phone_agree" d="M418.96 1218.59C384.27 1198.56 384.08 1166.08 418.54 1146.06C453.01 1126.03 509.08 1126.03 543.76 1146.06C578.46 1166.08 578.62 1198.56 544.17 1218.59C509.71 1238.61 453.65 1238.61 418.96 1218.59Z" fill="#DFE4F4"></path><path d="M530.89 1175.69L459.99 1179.3L462.19 1163.37H442.61L437.29 1192.41L530.89 1187.01V1175.69Z" fill="white"></path><path d="M574.93 470.67L419.16 380.74C403.64 371.78 378.24 371.78 362.71 380.74L228.08 458.47L440.29 580.99L574.92 503.26C590.46 494.3 590.46 479.63 574.93 470.67Z" fill="#DFE4F4"></path><path d="M228.09 501.87L440.3 624.39V580.99L228.09 458.46V501.87Z" fill="#D1D7F3"></path><g class="phone-card1"><path opacity="0.8" d="M574.93 410.82C590.45 419.78 590.45 434.45 574.93 443.41L236.23 638.96C220.71 647.92 195.3 647.92 179.78 638.96L24.0101 549.03C8.49012 540.07 8.49012 525.4 24.0101 516.44L362.71 320.89C378.23 311.93 403.64 311.93 419.16 320.89L574.93 410.82Z" fill="#FFAD02"></path><path d="M54.8799 536.08L141.43 486.11L147.83 489.8L61.28 539.77L54.8799 536.08Z" fill="white"></path><path d="M166.84 471.44L253.39 421.47L259.79 425.16L173.24 475.14L166.84 471.44Z" fill="white"></path><path d="M278.79 406.8L386.04 344.88L392.44 348.58L285.19 410.5L278.79 406.8Z" fill="white"></path><path d="M315.66 530.21L511.35 417.23L517.75 420.92L322.07 533.9L315.66 530.21Z" fill="white"></path><path d="M522.26 440.9C518.77 438.89 518.77 435.62 522.26 433.6C525.75 431.58 531.41 431.58 534.9 433.6C538.39 435.61 538.39 438.88 534.9 440.9C531.41 442.91 525.75 442.91 522.26 440.9Z" fill="#807DFB"></path><path d="M491.59 459.08C488.1 457.06 488.1 453.8 491.59 451.78C495.08 449.77 500.74 449.77 504.23 451.78C507.72 453.8 507.72 457.06 504.23 459.08C500.74 461.09 495.08 461.09 491.59 459.08Z" fill="#807DFB"></path><path d="M458.11 478.41C454.62 476.4 454.62 473.13 458.11 471.11C461.6 469.1 467.26 469.1 470.75 471.11C474.24 473.13 474.24 476.39 470.75 478.41C467.26 480.43 461.6 480.43 458.11 478.41Z" fill="#807DFB"></path><path d="M296.49 452.52L302.97 456.26L276.39 471.61L292.92 481.15L293.79 480.65C292.62 478.3 291.97 474.38 299.33 470.14C307.7 465.31 320.96 464.89 331.37 470.9C342.36 477.25 342.8 485.83 331.66 492.26C320.52 498.69 306.1 499.03 295.61 492.98L294.01 492.05L301.15 487.93L302.31 488.6C309.59 492.8 318.11 492.68 325.03 488.68C332.17 484.56 331.73 479.52 324.3 475.23C317.6 471.36 309.59 471.28 303.7 474.68C298.67 477.58 299.18 480.48 300.2 482.33L290.37 488.01L262.7 472.03L296.49 452.52Z" fill="#807DFB"></path><path d="M321.39 436.97C332.97 430.29 347.61 430.32 360.94 438.02L372.59 444.75C386.14 452.57 385.99 460.9 374.41 467.58C362.83 474.27 348.34 474.39 334.79 466.57L323.14 459.84C309.81 452.14 309.81 443.65 321.39 436.97ZM342.36 462.61C351.02 467.61 360.13 468.41 368 463.87C375.94 459.29 374.34 453.99 365.82 449.07L353.44 441.92C344.85 436.96 335.31 436.33 327.81 440.66C320.16 445.07 321.55 450.58 329.99 455.46L342.36 462.61Z" fill="#807DFB"></path><path d="M365.65 411.41C377.23 404.73 391.87 404.76 405.2 412.46L416.85 419.19C430.39 427.01 430.25 435.34 418.67 442.02C407.09 448.7 392.6 448.83 379.05 441.01L367.4 434.28C354.08 426.59 354.08 418.09 365.65 411.41ZM386.63 437.06C395.3 442.06 404.4 442.86 412.27 438.32C420.21 433.74 418.61 428.44 410.09 423.52L397.71 416.37C389.12 411.41 379.58 410.78 372.08 415.11C364.43 419.52 365.82 425.03 374.26 429.91L386.63 437.06Z" fill="#807DFB"></path><path d="M466.21 396.41L466.86 396.79C475.31 401.67 474.51 408.35 466.71 414.03L474.36 418.44L467.8 422.22L460.23 417.85C448.58 423.31 435.69 423.19 424.77 416.88L423.02 415.87L430.23 411.71L431.61 412.51C438.53 416.5 446.1 416.92 453.39 413.9L435.84 403.77C424.48 407.81 415.38 409.02 406.93 404.15L406.49 403.9C398.84 399.49 399.94 392.8 407.51 387.42L399.94 383.05L406.5 379.27L414.22 383.73C423.99 379.53 435.56 379.15 444.23 384.15L446.92 385.71L439.71 389.87L437.53 388.61C432.36 385.62 426.54 385.71 421.07 387.68L436.95 396.85C448.52 392.66 457.91 391.61 466.21 396.41ZM428.78 399.68L414.29 391.31C410.58 394.29 410.14 397.57 414 399.8C418.3 402.29 422.96 401.62 428.78 399.68ZM459.51 400.95C455.36 398.55 450.33 399.02 444.07 400.95L459.95 410.12C464.03 406.66 463.45 403.22 459.51 400.95Z" fill="#807DFB"></path><path d="M574.93 443.41L236.23 638.96C220.71 647.92 195.31 647.92 179.78 638.96L24.0101 549.03C16.9201 544.94 13.11 539.66 12.49 534.27H12.48V544.48C12.38 545.44 12.38 546.4 12.48 547.36V547.47H12.49C13.11 552.85 16.92 558.13 24 562.22L179.77 652.15C195.29 661.11 220.7 661.11 236.22 652.15L574.92 456.6C582.81 452.04 586.67 446.01 586.54 440H586.57V427.12C586.57 433.02 582.69 438.93 574.93 443.41Z" fill="url(#paint19_linear_phone)"></path></g><g class="phone-card2"><path d="M1155.52 1452.64L905.79 1308.46L693.58 1430.98L943.31 1575.16C958.83 1584.12 984.23 1584.12 999.76 1575.16L1155.53 1485.23C1171.04 1476.27 1171.04 1461.6 1155.52 1452.64Z" fill="#DFE4F4"></path><path d="M816.82 1213.69C801.3 1204.73 775.89 1204.73 760.37 1213.69L604.6 1303.62C589.08 1312.58 589.08 1327.25 604.6 1336.22L693.56 1387.58L905.77 1265.06L816.82 1213.69Z" fill="#DFE4F4"></path><path opacity="0.8" d="M999.75 1485.98C984.23 1494.94 958.83 1494.94 943.3 1485.98L604.6 1290.43C589.08 1281.47 589.08 1266.8 604.6 1257.84L760.37 1167.91C775.89 1158.95 801.29 1158.95 816.82 1167.91L1155.52 1363.45C1171.04 1372.41 1171.04 1387.08 1155.52 1396.05L999.75 1485.98Z" fill="#6B67E9"></path><path opacity="0.8" d="M999.75 1485.98C984.23 1494.94 958.83 1494.94 943.3 1485.98L604.6 1290.43C589.08 1281.47 589.08 1266.8 604.6 1257.84L760.37 1167.91C775.89 1158.95 801.29 1158.95 816.82 1167.91L1155.52 1363.45C1171.04 1372.41 1171.04 1387.08 1155.52 1396.05L999.75 1485.98Z" fill="#6B67E9"></path><path d="M787.99 1188.72L1119.47 1380.1L1113.07 1383.79L781.59 1192.42L787.99 1188.72Z" fill="white"></path><path d="M768.24 1200.13L933.97 1295.82L927.57 1299.51L761.84 1203.83L768.24 1200.13Z" fill="white"></path><path d="M925.02 1435.68C928.51 1433.67 934.17 1433.67 937.66 1435.68C941.15 1437.69 941.15 1440.96 937.66 1442.98C934.17 1444.99 928.52 1444.99 925.02 1442.98C921.54 1440.96 921.54 1437.69 925.02 1435.68Z" fill="white"></path><path d="M891.54 1416.35C895.03 1414.33 900.69 1414.33 904.18 1416.35C907.67 1418.36 907.67 1421.63 904.18 1423.64C900.69 1425.66 895.03 1425.66 891.54 1423.64C888.06 1421.63 888.06 1418.36 891.54 1416.35Z" fill="white"></path><path d="M858.06 1397.01C861.55 1395 867.21 1395 870.7 1397.01C874.19 1399.03 874.19 1402.3 870.7 1404.31C867.21 1406.32 861.55 1406.32 858.06 1404.31C854.57 1402.3 854.57 1399.03 858.06 1397.01Z" fill="white"></path><path d="M892.26 1304.85L841.21 1334.24L834 1330.08L877.26 1305.1L876.39 1304.6L852.72 1307.84L844.86 1303.3L881.12 1298.42L892.26 1304.85Z" fill="#FFAD02"></path><path d="M920.35 1319.9C931.93 1326.59 931.86 1335.04 918.53 1342.74L906.88 1349.46C893.33 1357.28 878.91 1357.2 867.34 1350.51C855.76 1343.82 855.54 1335.46 869.09 1327.63L880.74 1320.91C894.07 1313.21 908.78 1313.21 920.35 1319.9ZM875.94 1332.01C867.28 1337.01 865.89 1342.27 873.75 1346.81C881.69 1351.39 890.87 1350.47 899.38 1345.55L911.77 1338.4C920.36 1333.44 921.46 1327.94 913.95 1323.6C906.31 1319.19 896.76 1319.99 888.32 1324.86L875.94 1332.01Z" fill="#FFAD02"></path><path d="M964.62 1345.46C976.2 1352.14 976.13 1360.6 962.8 1368.29L951.15 1375.02C937.6 1382.84 923.18 1382.75 911.6 1376.07C900.02 1369.39 899.8 1361.02 913.35 1353.2L925 1346.47C938.34 1338.77 953.05 1338.77 964.62 1345.46ZM920.2 1357.57C911.53 1362.57 910.15 1367.83 918.01 1372.37C925.95 1376.96 935.12 1376.03 943.64 1371.11L956.03 1363.97C964.62 1359.01 965.71 1353.5 958.21 1349.17C950.56 1344.76 941.02 1345.55 932.58 1350.43L920.2 1357.57Z" fill="#FFAD02"></path><path d="M1008.89 1371.01C1020.47 1377.7 1020.4 1386.15 1007.07 1393.85L995.42 1400.57C981.88 1408.39 967.45 1408.31 955.88 1401.62C944.3 1394.93 944.08 1386.57 957.63 1378.74L969.28 1372.02C982.6 1364.33 997.31 1364.33 1008.89 1371.01ZM964.47 1383.13C955.81 1388.13 954.42 1393.39 962.28 1397.93C970.22 1402.51 979.4 1401.59 987.92 1396.67L1000.3 1389.52C1008.89 1384.56 1009.99 1379.06 1002.49 1374.72C994.84 1370.31 985.3 1371.1 976.85 1375.98L964.47 1383.13Z" fill="#FFAD02"></path><path d="M1034.87 1429.07L1034.22 1429.45C1025.78 1434.33 1014.19 1433.86 1004.36 1429.37L996.71 1433.78L990.16 1429.99L997.73 1425.62C988.26 1418.9 988.48 1411.45 999.41 1405.15L1001.16 1404.14L1008.37 1408.3L1006.99 1409.1C1000.07 1413.09 999.35 1417.47 1004.59 1421.67L1022.14 1411.54C1015.15 1404.98 1013.04 1399.72 1021.49 1394.84L1021.93 1394.59C1029.57 1390.18 1041.16 1390.81 1050.47 1395.18L1058.04 1390.81L1064.6 1394.59L1056.88 1399.05C1064.17 1404.69 1064.82 1411.37 1056.16 1416.37L1053.46 1417.92L1046.25 1413.76L1048.44 1412.5C1053.61 1409.52 1053.46 1406.15 1050.04 1403L1034.17 1412.16C1041.36 1418.86 1043.17 1424.28 1034.87 1429.07ZM1029.2 1407.46L1043.69 1399.09C1038.53 1396.94 1032.84 1396.69 1028.98 1398.92C1024.68 1401.41 1025.85 1404.1 1029.2 1407.46ZM1027.01 1425.2C1031.16 1422.81 1030.36 1419.91 1027.01 1416.29L1011.14 1425.45C1017.11 1427.82 1023.08 1427.47 1027.01 1425.2Z" fill="#FFAD02"></path><path d="M604.61 1290.43L943.31 1485.97C958.83 1494.93 984.23 1494.93 999.76 1485.97L1155.53 1396.04C1162.62 1391.94 1166.43 1386.66 1167.05 1381.28H1167.06V1391.49C1167.16 1392.45 1167.16 1393.41 1167.06 1394.37V1394.48H1167.05C1166.43 1399.86 1162.61 1405.14 1155.53 1409.22L999.76 1499.16C984.24 1508.12 958.84 1508.12 943.31 1499.16L604.61 1303.61C596.71 1299.05 592.86 1293.02 592.99 1287.01H592.96V1274.13C592.97 1280.04 596.85 1285.95 604.61 1290.43Z" fill="url(#paint20_linear_phone)"></path><path opacity="0.85" d="M999.75 1485.98C984.23 1494.94 958.83 1494.94 943.3 1485.98L604.6 1290.43C589.08 1281.47 589.08 1266.8 604.6 1257.84L760.37 1167.91C775.89 1158.95 801.29 1158.95 816.82 1167.91L1155.52 1363.45C1171.04 1372.41 1171.04 1387.08 1155.52 1396.05L999.75 1485.98Z" fill="#333366"></path><path opacity="0.85" d="M604.61 1290.43L943.31 1485.97C958.83 1494.93 984.23 1494.93 999.76 1485.97L1155.53 1396.04C1162.62 1391.94 1166.43 1386.66 1167.05 1381.28H1167.06V1391.49C1167.16 1392.45 1167.16 1393.41 1167.06 1394.37V1394.48H1167.05C1166.43 1399.86 1162.61 1405.14 1155.53 1409.22L999.76 1499.16C984.24 1508.12 958.84 1508.12 943.31 1499.16L604.61 1303.61C596.71 1299.05 592.86 1293.02 592.99 1287.01H592.96V1274.13C592.97 1280.04 596.85 1285.95 604.61 1290.43Z" fill="#333366"></path><path opacity="0.85" d="M604.61 1290.43L943.31 1485.97C958.83 1494.93 984.23 1494.93 999.76 1485.97L1155.53 1396.04C1162.62 1391.94 1166.43 1386.66 1167.05 1381.28H1167.06V1391.49C1167.16 1392.45 1167.16 1393.41 1167.06 1394.37V1394.48H1167.05C1166.43 1399.86 1162.61 1405.14 1155.53 1409.22L999.76 1499.16C984.24 1508.12 958.84 1508.12 943.31 1499.16L604.61 1303.61C596.71 1299.05 592.86 1293.02 592.99 1287.01H592.96V1274.13C592.97 1280.04 596.85 1285.95 604.61 1290.43Z" fill="#FFAD02"></path></g><g class="phone_screen"><path d="M1005.82 471.81C998.649 470.67 992.619 468.91 988.899 465.06C983.979 459.95 987.17 454.19 995.64 449.18C1004.32 444.05 1013.34 439.1 1022.58 433.85C1020.36 432.4 1018.28 431.05 1016.27 429.74C1024.29 423.43 1025.12 423.32 1033.9 427.43C1035.87 426.31 1037.89 425.17 1039.91 424.02C1041.81 422.94 1043.72 421.86 1045.38 420.92C1046.27 421.03 1046.7 421 1046.87 421.11C1049.76 422.91 1055.07 424.52 1054.77 426.61C1054.48 428.64 1048.41 431.16 1044.46 433.75C1047.83 435.71 1051.33 437.75 1055.04 439.9C1051.23 442.06 1047.86 443.98 1044.19 446.06C1040.65 444 1037.22 442.01 1033.31 439.73C1027.68 442.92 1022.34 445.96 1016.99 448.99C1013.8 450.8 1010.76 452.72 1007.38 454.4C999.689 458.23 1001.43 461.8 1007.71 463.95C1008.87 464.35 1010.37 464.48 1012.08 464.81C1010.26 467 1008.46 469.16 1006.66 471.32C1006.38 471.5 1006.1 471.65 1005.82 471.81Z" fill="white"></path><path d="M844.29 317.68C847.52 319.56 850.53 321.31 853.78 323.2C851.71 324.36 849.82 325.42 847.09 326.95C857.23 326.26 864.33 327.92 869.63 331.28C875.03 334.69 877.1 339.01 874.53 344.36C892.13 343.56 904.44 348.37 906.44 356.55C907.7 361.69 903.34 366.42 896.76 370.43C885.54 377.27 873.48 383.68 861.49 390.44C858.1 388.47 854.92 386.62 851.44 384.6C853.01 383.64 854.41 382.74 855.9 381.89C865.19 376.58 874.41 371.23 883.81 366C888.78 363.23 891.42 359.12 888.83 356C885.84 352.4 878.29 350.35 871.55 352.09C865.95 353.54 860.33 355.71 855.56 358.14C846.84 362.59 838.74 367.46 830.16 372.28C826.87 370.37 823.87 368.62 820.35 366.58C823.14 365.01 826.06 363.42 828.88 361.78C837.47 356.76 846.46 351.92 854.43 346.63C860.1 342.87 860.2 339.47 856.72 337.16C850.77 333.2 844.41 332.32 836.86 334.67C833.94 335.58 831.06 336.81 828.6 338.16C818.87 343.49 809.31 348.93 799.46 354.45C795.95 352.41 792.74 350.54 789.27 348.52C807.52 338.29 825.76 328.06 844.29 317.68Z" fill="white"></path><path d="M718.36 294.7C714.2 297.02 710.88 298.87 707.34 300.85C693.32 292.7 679.45 284.63 665.31 276.41C689.47 262.98 713.66 249.52 738.11 235.92C751.53 243.72 765.01 251.57 778.68 259.53C775.01 261.57 771.43 263.57 767.39 265.83C757.43 260.04 747.41 254.21 737.18 248.25C730.8 251.8 724.86 255.1 718.48 258.66C726.34 263.23 733.94 267.87 742 272.24C745.2 273.97 745.01 275.33 740.75 277.21C739.53 277.75 738.4 278.41 737.39 279.08C734.77 280.8 732.98 280.6 730.96 279.39C723.57 274.97 716.01 270.65 708.51 266.29C707.98 265.98 707.38 265.71 706.57 265.31C700.08 268.92 693.69 272.48 686.76 276.34C697.15 282.37 707.63 288.46 718.36 294.7Z" fill="white"></path><path d="M788.29 329.61C787.36 332.15 786.5 334.52 785.6 336.97C776.27 338.41 769.42 336.65 763.27 334.24C752.67 330.07 745.14 320.81 752.96 311.16C760.01 302.47 771.62 296.82 786.9 294.93C801.21 293.16 811.41 296.16 818.57 302.26C827.15 309.58 821.34 322.37 803.65 330.09C792.57 323.65 781.43 317.17 769.92 310.47C765.03 314.39 763.67 318 765.52 321.35C768.66 327.07 776.24 329.76 788.29 329.61ZM802.53 319.83C811.42 313.71 810.54 307.44 800.66 303.61C794.67 301.28 784 302.5 778.97 306.13C786.74 310.65 794.52 315.17 802.53 319.83Z" fill="white"></path><path d="M937.21 407.9C926 401.38 914.96 394.96 903.88 388.51C892.2 397.36 900.41 406.08 921.54 407.61C920.32 415.9 919.49 416.8 905.79 414.46C885.66 411.03 875.5 397.22 891.15 384.67C910.51 369.14 939.8 368.88 952.02 379.83C961.47 388.31 954.06 400.48 937.21 407.9ZM936.15 397.46C943.36 393.19 944.52 387.63 939.23 384.16C931.62 379.17 922.47 378.95 912.36 383.62C920.23 388.2 928.09 392.77 936.15 397.46Z" fill="white"></path><path d="M933.13 432.19C929.66 430.17 926.66 428.43 923.5 426.59C941.77 416.26 959.82 406.06 978.16 395.69C981.01 397.35 983.87 399.01 987 400.83C985.25 401.91 983.45 403.02 981.13 404.45C989.78 404.33 997.03 405.51 1002.37 408.5C1013.43 414.69 1013.79 422.79 999.93 431.58C989.25 438.36 977.32 444.54 965.72 451.12C962.23 449.09 959.02 447.22 955.31 445.06C959.12 442.9 962.96 440.73 966.79 438.55C973.33 434.84 979.88 431.14 986.42 427.43C993.25 423.56 995.53 419.26 992.43 416.16C987.78 411.52 978.7 410 970.25 412.68C966.85 413.76 963.46 415.14 960.59 416.7C951.42 421.73 942.48 426.9 933.13 432.19Z" fill="white"></path><path d="M717.36 306.57C729.82 299.62 741.99 292.83 754.16 286.04C764.94 280.03 775.77 274.06 786.42 267.99C789.35 266.32 791.15 266.17 793.22 267.6C795.36 269.08 797.88 270.36 800.43 271.85C775.97 285.51 751.96 298.91 727.59 312.52C724.38 310.65 721.08 308.74 717.36 306.57Z" fill="white"></path><path d="M787.06 374.31C787.98 376.2 788.62 377.51 789.51 379.34C798.55 380.08 803.35 383.71 801.47 389.51C800.03 393.95 790.53 399.26 782.05 400.36C773.56 401.46 766.53 398.18 764.53 392C760.38 394.33 756.36 396.58 752.01 399.03C750.47 398.13 749.14 397.36 747.59 396.46C760.25 389.36 772.92 382.25 787.06 374.31ZM776.09 385.46C770.44 388.62 769.14 392.87 773.13 395.13C776.9 397.26 784.73 396.64 789.88 393.8C795.71 390.59 796.73 386.77 792.41 384.24C788.47 381.92 781.48 382.44 776.09 385.46Z" fill="white"></path><path d="M634.42 319.34C643.53 314.26 652.17 309.4 660.97 304.64C661.76 304.22 664.29 304.1 664.91 304.46C668.67 306.66 672.78 308.76 675.52 311.4C680.41 316.13 676.51 319.58 665.44 320.71C666.95 323.58 663.93 325.92 659.44 327.52C654.69 329.21 650.47 328.61 647.36 326.84C643.17 324.47 639.09 322.05 634.42 319.34ZM643.08 319.88C646.46 321.44 649.43 323.06 652.97 324.25C653.89 324.56 657.05 323.76 658.27 323.01C659.23 322.42 659.56 320.77 658.84 320.22C656.55 318.48 653.64 317.05 650.96 315.49C648.19 317.03 645.99 318.26 643.08 319.88ZM654.84 313.24C658.04 314.63 660.61 316.03 663.74 316.97C664.88 317.31 667.98 316.88 669 316.24C670.09 315.55 670.65 313.81 669.92 313.2C667.96 311.56 665.19 310.28 662.73 308.85C659.99 310.38 657.89 311.55 654.84 313.24Z" fill="white"></path><path d="M960.85 495.65C955.23 492.38 949.74 489.19 944.23 485.99C937.57 490.71 941.79 495.25 953.46 496.17C953.17 497.11 952.859 498.09 952.569 499.03C946.069 500.88 936.55 497.55 934.68 492.65C932.89 487.97 938.37 482.19 947.43 479.28C955.89 476.56 965.38 477.38 969.21 481.37C972.83 485.14 971.47 491.17 960.85 495.65ZM961.47 490.99C966.16 486.34 965.81 484.06 960.54 482.01C957.17 480.7 952.619 481.24 948.589 483.5C952.799 485.95 957 488.39 961.47 490.99Z" fill="white"></path><path d="M750.08 387.35C749.01 385.78 748.3 384.73 748.07 384.38C743.84 382.3 739.68 380.81 736.84 378.7C734.03 376.6 735.85 372.85 739.45 370.98C743.65 368.8 749.16 368.44 753.3 370.18C756.66 371.59 759.86 373.1 763.14 374.56C770.33 370.74 767.36 367.31 755.17 365.37C756.21 362.09 757.49 361.47 762.01 362.67C765.51 363.6 768.84 364.83 771.42 366.38C775.49 368.83 774.8 373.21 769.95 376.14C763.91 379.79 757.44 383.23 750.08 387.35ZM758.39 376.95C755.65 375.68 752.99 374.21 749.85 373.11C748.7 372.71 745.99 372.84 744.73 373.38C743.44 373.94 741.96 375.8 742.47 376.21C744.33 377.7 746.54 379.27 749.49 379.97C752.52 380.69 755.95 379.52 758.39 376.95Z" fill="white"></path><path d="M640.44 303.23C647.55 299.31 644.51 295.8 632.23 294.09C632.72 293.18 633.24 292.24 633.73 291.34C640.82 290.57 648.28 293.13 650.58 296.94C652.51 300.15 650.83 302.75 644.57 306.24C639.11 309.28 633.64 312.32 627.36 315.82C626.26 314.38 625.43 313.31 624.23 311.74C619.37 311.53 615.07 309.86 613.24 306.56C611.76 303.88 613.49 301.4 618.79 299.04C623.04 297.15 627.01 297.37 630.28 298.67C633.7 300.04 636.84 301.6 640.44 303.23ZM635.75 305.65C632.77 304.26 629.94 302.69 626.62 301.48C624.06 300.55 620.1 302.11 619.64 304.11C619.03 306.79 622.23 307.89 625.63 308.6C629.25 309.37 632.69 308.42 635.75 305.65Z" fill="white"></path><path d="M859.259 434.29C851.239 438.8 839.529 439.74 833.549 435.94C827.219 431.91 827.889 425.68 836.799 420.77C845.219 416.13 855.96 415.55 862.72 419.31C868.99 422.79 868.679 429.76 859.259 434.29ZM855.259 431.43C861.159 428.06 862.03 424.76 857.72 422.21C853.53 419.73 846.939 420.28 841.109 423.59C835.779 426.62 834.289 430.92 838.419 432.99C842.619 435.1 849.339 435.1 855.259 431.43Z" fill="white"></path><path d="M717.45 334.87C724.3 338.64 722.6 344.9 714.42 349.81C706.78 354.39 694.36 354.97 687.97 351.41C681.59 347.87 682.9 340.34 691.2 336.16C700.6 331.42 711.21 331.03 717.45 334.87ZM712.5 337.77C708.38 335.3 701.07 335.75 695.63 338.8C690.35 341.76 689.11 346.27 692.95 348.5C696.8 350.74 704.7 350.11 710.01 347.14C715.35 344.17 716.42 340.12 712.5 337.77Z" fill="white"></path><path d="M879.31 429.15C881.27 430.25 884.83 430.77 880.1 433.33C887.6 433.77 893.61 435.15 894.1 439.5C894.33 441.56 893.15 444.51 890.65 446.25C885.12 450.09 878.36 453.42 871.85 457.1C870.38 456.25 869.14 455.53 867.34 454.48C872.83 451.38 878.35 448.38 883.61 445.25C888.2 442.52 888.5 439.94 884.88 438.01C881.28 436.1 875.67 436.34 871.33 438.72C866.11 441.58 861.01 444.53 855.58 447.59C854.04 446.69 852.7 445.92 851.18 445.03C860.52 439.77 869.81 434.52 879.31 429.15Z" fill="white"></path><path d="M734.44 344.95C741.11 348.83 747.59 352.6 754.25 356.47C744.75 361.79 735.43 367.01 725.92 372.34C724.62 371.59 723.46 370.91 721.88 369.99C729.55 365.69 737.19 361.42 745.07 357.01C740.91 354.59 737.16 352.41 733.04 350.02C725.38 354.31 717.73 358.59 709.88 362.98C708.47 362.16 707.42 361.55 706.12 360.79C715.39 355.61 724.72 350.39 734.44 344.95Z" fill="white"></path><path d="M922.72 486.74C921.14 485.82 919.87 485.08 918.16 484.09C923.41 481.11 928.69 478.14 933.92 475.15C938.64 472.45 939.46 470.05 936.42 467.98C933.06 465.68 927.67 465.61 922.77 468.01C917.01 470.82 911.44 473.78 905.6 476.77C904.48 476.12 903.43 475.51 902.11 474.74C911.32 469.52 920.59 464.27 930.22 458.82C931.79 459.81 935.96 460.06 930.91 462.73C937.09 463.22 942 464.32 944.46 467.52C946.76 470.51 945.3 473.51 941.12 476.2C935.43 479.86 929.01 483.18 922.72 486.74Z" fill="white"></path><path d="M834.27 403.2C826.48 404.23 819.63 405.14 812.38 406.1C810.5 410.35 808.61 414.6 806.67 418.99C802.32 417.72 800.52 416.09 802.77 413.04C803.91 411.49 803.69 409.79 804.8 408.24C806.58 405.75 804.79 404.55 801.68 403.35C798.06 405.39 794.35 407.47 790.38 409.71C788.71 408.74 787.37 407.96 785.69 406.98C794.42 402.07 802.95 397.13 811.87 392.44C813 391.85 816.2 392.6 819.9 392.81C814.6 395.79 810.89 397.88 807.13 399.99C809.2 402.38 811.9 403.34 817.07 402.11C819.78 401.47 822.75 401.57 825.49 400.96C830.16 399.93 832.05 401.2 834.27 403.2Z" fill="white"></path><path d="M692.25 325.79C684 330.39 676.45 334.61 668.66 338.96C667.19 338.11 665.95 337.38 664.41 336.49C672.04 332.23 679.6 328.02 687.67 323.51C684.86 321.88 682.33 320.4 679.86 318.97C682.85 316.31 685.07 315.86 687.92 317.64C693.33 321.03 699.11 324.22 704.93 327.6C703.24 328.62 701.94 329.41 700.23 330.44C697.61 328.9 695.16 327.48 692.25 325.79Z" fill="white"></path><path d="M478.29 204.47C474.34 202.15 475.32 198.01 480.47 195.24C485.22 192.69 492.97 192.23 496.72 194.28C500.42 196.31 499.39 201.06 494.67 203.7C489.81 206.42 482.22 206.78 478.29 204.47Z" fill="white"></path><path d="M465.34 261.58C461.22 259.23 461.96 255.15 467.01 252.32C471.76 249.67 479.45 249.19 483.29 251.31C487.24 253.49 486.33 258 481.39 260.7C476.51 263.39 469.21 263.78 465.34 261.58Z" fill="white"></path><path d="M484.66 246.29C479.28 249.27 472.09 249.74 468.17 247.38C464.64 245.25 465.61 240.69 470.14 238.1C475.11 235.26 482.56 234.89 486.64 237.28C490.52 239.55 489.64 243.53 484.66 246.29Z" fill="white"></path><path d="M477.37 209.54C483.15 206.2 489.7 206.85 493.46 208.65C497.28 210.48 495.77 215.33 491.18 217.9C485.86 220.88 478.53 221.18 474.42 218.6C470.81 216.34 472.11 212.36 477.37 209.54Z" fill="white"></path><path d="M500.72 175.24C495.71 177.98 488.34 178.55 484.68 176.39C480.99 174.22 482.12 169.42 487.09 167.08C492.71 164.44 499.66 163.84 503.48 166.21C507.14 168.49 505.94 172.39 500.72 175.24Z" fill="white"></path><path d="M499.58 180.29C503.74 182.69 502.93 186.63 497.67 189.47C492.4 192.32 485.77 192.71 481.75 190.41C477.85 188.18 478.72 183.56 483.5 181.02C488.42 178.41 495.74 178.08 499.58 180.29Z" fill="white"></path><path d="M473.78 224.11C479.04 221.19 486.3 220.69 490.19 222.96C493.92 225.14 492.83 229.25 487.79 232.05C482.62 234.92 475.01 235.44 471.29 233.18C467.68 230.98 468.81 226.87 473.78 224.11Z" fill="white"></path><path d="M526.78 165.37C530.48 167.54 529.81 171.05 525.22 173.55C520.75 175.98 514.11 176.28 510.58 174.19C507.11 172.14 507.91 168.26 512.29 165.9C516.96 163.39 523.02 163.17 526.78 165.37Z" fill="white"></path><path d="M505.81 194.61C510.68 191.91 517.19 191.27 520.4 193.48C523.69 195.75 523.01 199.27 518.32 201.8C513.62 204.33 507.1 204.84 503.61 202.83C500.05 200.78 500.99 197.27 505.81 194.61Z" fill="white"></path><path d="M493 251.34C497.8 248.71 504.08 248.31 507.56 250.42C511.07 252.55 510.07 256.07 505.21 258.7C500.65 261.17 493.18 261.79 490.52 259.63C487.58 257.25 487.53 253.93 493 251.34Z" fill="white"></path><path d="M513.63 222.14C517.04 224.18 516.18 228.1 511.81 230.39C507.32 232.75 500.76 232.97 497.21 230.89C493.62 228.78 494.5 225.17 499.21 222.68C503.95 220.19 509.99 219.96 513.63 222.14Z" fill="white"></path><path d="M517.16 207.83C520.36 209.81 519.33 213.93 515.08 216.16C510.48 218.57 503.83 218.85 500.45 216.76C497.05 214.67 497.96 210.76 502.37 208.44C506.59 206.22 514.06 205.91 517.16 207.83Z" fill="white"></path><path d="M508.06 244.5C503.35 247.04 496.95 247.35 493.63 245.2C490.23 243 491.31 239.55 496.19 236.96C500.82 234.51 507.59 234.17 510.74 236.24C514.05 238.41 512.92 241.88 508.06 244.5Z" fill="white"></path><path d="M523.43 179.74C527.03 181.86 526.25 184.93 521.47 187.56C516.66 190.2 510.58 190.58 507.01 188.46C503.41 186.32 504.29 182.85 509.11 180.22C513.77 177.67 519.6 177.48 523.43 179.74Z" fill="white"></path><path d="M882.74 463.55C881.48 462.82 880.42 462.2 879.15 461.46C892.11 454.13 904.99 446.85 918.24 439.35C919.39 439.95 920.58 440.56 922.03 441.32C908.94 448.73 896.07 456.01 882.74 463.55Z" fill="white"></path><path d="M516.15 250.35C520.46 248.02 526.35 247.65 529.27 249.55C532.09 251.38 530.97 254.93 526.89 257.1C522.87 259.24 516.37 259.58 513.63 257.79C510.57 255.79 511.58 252.83 516.15 250.35Z" fill="white"></path><path d="M539.91 200.23C536.09 202.28 530 202.7 527.12 201.1C524.02 199.38 525.14 195.7 529.47 193.4C533.29 191.37 539.39 190.99 542.24 192.61C545.45 194.43 544.41 197.81 539.91 200.23Z" fill="white"></path><path d="M530.13 242.76C525.48 245.28 520.58 245.56 517.21 243.48C514.01 241.51 514.9 238.41 519.33 236.05C523.75 233.7 528.92 233.52 532.24 235.62C535.39 237.61 534.58 240.34 530.13 242.76Z" fill="white"></path><path d="M543.23 185.84C538.63 188.36 533.71 188.67 530.38 186.67C527.17 184.73 527.94 181.64 532.22 179.32C536.44 177.03 542.25 176.65 545.35 178.47C548.45 180.28 547.53 183.49 543.23 185.84Z" fill="white"></path><path d="M533.74 172.3C530.45 170.34 531.17 167.24 535.45 164.98C539.45 162.87 545.42 162.67 548.47 164.56C551.43 166.4 550.71 170.12 546.74 171.99C543.06 173.73 535.97 174.68 533.74 172.3Z" fill="white"></path><path d="M524.09 214.89C520.53 213.26 521.91 209.74 525.85 207.52C529.86 205.26 535.86 205.12 538.93 207.02C541.97 208.9 541.09 212.22 536.95 214.46C532.62 216.79 527.55 216.97 524.09 214.89Z" fill="white"></path><path d="M535.38 221.26C538.5 223.08 537.85 226.63 534.01 228.66C530.07 230.75 523.86 231 520.8 229.19C517.78 227.4 518.57 223.77 522.43 221.73C526.8 219.42 531.92 219.23 535.38 221.26Z" fill="white"></path><path d="M894.4 470.27C892.95 469.43 891.68 468.69 890.1 467.77C898.9 462.79 907.41 457.83 916.3 453.13C917.42 452.54 920.61 453.28 924.09 453.47C913.27 459.59 904 464.84 894.4 470.27Z" fill="white"></path><path d="M540.88 241.83C537.84 240.06 538.59 237.19 542.67 235.01C546.21 233.12 552.02 232.8 554.46 234.36C556.78 235.84 555.89 239.45 552.77 241.21C549.5 243.06 543.53 243.37 540.88 241.83Z" fill="white"></path><path d="M553.96 185.02C550.98 183.38 551.57 180.56 555.32 178.42C559.08 176.28 564.15 175.84 567.2 177.4C569.78 178.72 569.14 182.3 565.97 184.2C562.86 186.07 556.66 186.49 553.96 185.02Z" fill="white"></path><path d="M557.06 220.44C560 222.14 559.47 225 555.85 226.98C552.25 228.95 547.19 229.16 544.29 227.44C541.34 225.69 541.84 222.85 545.46 220.87C549.07 218.9 554.06 218.71 557.06 220.44Z" fill="white"></path><path d="M557.28 170.64C554.32 168.9 554.87 166.07 558.55 164.08C562.13 162.15 567.22 161.96 570.11 163.66C572.98 165.35 572.44 168.26 568.89 170.2C565.25 172.18 560.25 172.37 557.28 170.64Z" fill="white"></path><path d="M549.13 255.18C545.18 257.35 540.23 257.75 537.34 256.14C534.45 254.53 535.45 251.49 539.59 249.27C543.11 247.39 548.16 247.08 550.83 248.59C553.7 250.2 552.95 253.09 549.13 255.18Z" fill="white"></path><path d="M562.27 198.25C558.24 200.48 552.88 200.86 550.15 199.1C547.63 197.47 548.67 194.43 552.44 192.4C555.92 190.53 561.07 190.2 563.77 191.68C566.69 193.28 566.03 196.17 562.27 198.25Z" fill="white"></path><path d="M560.66 206.2C563.58 207.91 562.88 210.55 558.94 212.68C555.29 214.65 550.72 214.9 547.86 213.28C544.72 211.51 545.07 208.86 548.73 206.72C552.47 204.52 557.44 204.31 560.66 206.2Z" fill="white"></path><path d="M574.15 240.32C570.91 240.25 567.19 240.63 564.57 239.99C561.69 239.28 562.8 235.72 565.72 234.14C568.52 232.62 573.79 232.25 575.95 233.42C578.22 234.66 577.5 237.83 574.15 240.32Z" fill="white"></path><path d="M587.36 182.62C584.25 184.26 579.59 184.54 577.32 183.23C575.1 181.95 575.9 178.81 578.84 177.28C581.65 175.82 587.01 175.49 589 176.67C591.28 178.01 590.46 180.99 587.36 182.62Z" fill="white"></path><path d="M567.58 225.6C565.23 224.21 565.79 221.24 568.97 219.78C572.56 218.13 575.93 217.88 578.63 219.52C580.94 220.92 580.42 223.88 577.5 225.32C574.79 226.68 569.64 226.82 567.58 225.6Z" fill="white"></path><path d="M571.02 253.45C568.1 255.09 563.31 255.46 561.08 254.23C558.88 253.02 559.49 250.24 562.3 248.63C565.74 246.67 569.95 246.3 572.52 247.72C575.2 249.21 574.61 251.44 571.02 253.45Z" fill="white"></path><path d="M580.63 168.9C577.92 167.26 579.19 165.17 581.66 163.29C583.99 161.52 589.3 161.47 591.77 162.88C594.55 164.46 594.07 166.35 590.96 168.32C588.29 170.02 582.91 170.23 580.63 168.9Z" fill="white"></path><path d="M581.1 210.8C577.92 212.65 573.98 212.94 571.32 211.5C568.56 210.01 568.88 207.48 572.05 205.73C574.98 204.11 579.57 203.86 582.04 205.19C584.32 206.42 583.86 209.19 581.1 210.8Z" fill="white"></path><path d="M583.95 196.65C581.05 198.26 576.09 198.7 573.88 197.53C571.74 196.41 572.42 193.47 575.18 191.87C578.24 190.1 583.44 189.65 585.62 190.98C587.7 192.25 586.9 195 583.95 196.65Z" fill="white"></path><path d="M611.22 167.55C609.62 167.49 606.4 167.84 604.41 167.2C601.26 166.19 602.2 163.69 604.97 162.46C607.13 161.5 611.86 161.19 613.75 161.86C616.19 162.72 615.98 164.89 611.22 167.55Z" fill="white"></path><path d="M589.02 233.07C592.3 231.4 596.04 231.28 597.56 232.78C598.61 233.82 597.83 236.54 596.13 237.47C594.43 238.39 589.63 238.7 587.86 238.05C585.29 237.09 585.68 234.97 589.02 233.07Z" fill="white"></path><path d="M590.73 223.73C588.56 222.29 589.23 220.16 592.31 218.93C594.42 218.09 599.14 217.94 600.45 218.71C601.72 219.46 601.16 222.17 599.57 223.32C597.23 225.01 593.47 225.31 590.73 223.73Z" fill="white"></path><path d="M608.72 182.02C605.96 181.8 602.46 182.06 600.61 181.23C597.99 180.06 599.03 177.94 602.14 176.31C605.19 174.71 609 174.77 610.43 176.04C611.72 177.18 610.68 179.3 610.68 180.99C610.02 181.33 609.37 181.67 608.72 182.02Z" fill="white"></path><path d="M598.53 190.78C601.74 189.11 604.94 188.83 607.26 190.21C609.45 191.51 608.83 193.23 605.92 194.93C602.63 196.85 599.24 196.77 597.19 195.53C595.33 194.41 595.14 192.51 598.53 190.78Z" fill="white"></path><path d="M594.06 246.71C596.5 248.34 596.26 249.92 593.29 251.66C590.02 253.57 586.83 253.62 584.55 252.22C582.44 250.92 582.67 249.16 585.88 247.47C588.98 245.81 591.76 245.85 594.06 246.71Z" fill="white"></path><path d="M603.27 208.98C599.89 210.65 597.19 210.98 594.59 209.69C591.71 208.25 592.44 206.48 595.43 204.82C598.22 203.28 601.3 202.89 603.75 204.36C606.12 205.78 605.25 207.37 603.27 208.98Z" fill="white"></path><path d="M635.87 165.78C631.85 165.6 628.56 165.98 627.63 165.27C626.61 164.49 627.77 162.7 627.99 161.35C630.28 161.29 633.32 160.75 634.66 161.32C635.92 161.87 635.39 163.6 635.87 165.78Z" fill="white"></path><path d="M617.73 236.49C615.49 236.46 612.12 236.94 611.3 236.28C610.32 235.49 610.7 233.24 612.03 232.49C613.38 231.72 617.25 231.49 618.8 231.99C620 232.38 619.34 234.25 619.51 235.47C618.92 235.81 618.33 236.15 617.73 236.49Z" fill="white"></path><path d="M616.59 207.77C617.35 206.51 617.54 204.76 619.02 204.13C620.61 203.44 624.04 203.34 625.43 203.87C626.35 204.22 625.85 206.5 624.63 207.26C623.26 208.11 620.35 208.21 618.12 208.64C617.61 208.35 617.1 208.06 616.59 207.77Z" fill="white"></path><path d="M632.16 179.85C628.11 179.71 624.68 180.1 624.05 179.43C623.22 178.54 623.8 176.34 625.21 175.59C626.6 174.85 630.44 174.73 631.95 175.28C633.07 175.68 632.17 177.59 632.16 179.85Z" fill="white"></path><path d="M617.13 246.12C616.33 247.41 616.11 249.19 614.58 249.86C612.97 250.57 610.12 250.21 607.81 250.32C608.18 249.07 607.81 247.42 609.1 246.66C610.55 245.8 613.51 245.74 615.81 245.33C616.25 245.6 616.69 245.86 617.13 246.12Z" fill="white"></path><path d="M933.66 450.56C929.79 450.61 926.74 451.13 925.75 450.52C924.7 449.88 925.61 448.16 925.66 446.92C927.85 446.72 930.66 446.03 932.05 446.48C933.3 446.89 932.98 448.56 933.66 450.56Z" fill="white"></path><path d="M636 249.01C634.41 248.82 632.16 248.93 631.41 248.34C630.76 247.82 631.38 245.96 632.15 245.71C633.74 245.2 636.31 244.98 637.51 245.38C638.39 245.68 637.73 247.17 637.76 248.13C637.18 248.42 636.59 248.72 636 249.01Z" fill="white"></path><path d="M657.42 164.05C654.09 163.83 651.54 164.09 650.79 163.51C650 162.91 650.95 161.5 651.14 160.45C653.02 160.41 655.44 159.99 656.61 160.45C657.59 160.82 657.11 162.24 657.42 164.05Z" fill="white"></path></g><path d="M745.96 468.18C745.96 449.3 758.43 430.42 783.38 416.02C808.33 401.62 841.02 394.41 873.72 394.41C906.41 394.41 939.1 401.62 964.05 416.02C989 430.42 1001.47 449.3 1001.47 468.18C1001.48 487.05 989 505.93 964.05 520.34C939.11 534.74 906.42 541.93 873.73 541.93C841.04 541.93 808.33 534.73 783.39 520.33C758.44 505.92 745.97 487.05 745.96 468.18Z" fill="#FFD03E"></path><path d="M964.05 520.33C939.11 534.73 906.42 541.92 873.73 541.92C841.04 541.92 808.33 534.72 783.39 520.32C758.44 505.92 745.97 487.04 745.95 468.17V504.58C745.96 523.45 758.43 542.32 783.39 556.73C808.33 571.13 841.03 578.33 873.73 578.33C906.42 578.33 939.11 571.14 964.05 556.73C989 542.32 1001.48 523.44 1001.47 504.57V468.16C1001.48 487.05 989.01 505.92 964.05 520.33Z" fill="url(#paint21_linear_phone)"></path><path d="M800.36 510.52C820.62 522.22 847.18 528.07 873.73 528.07C900.28 528.07 926.83 522.22 947.09 510.52C965.78 499.73 975.83 485.84 977.27 471.71C975.83 457.58 965.78 443.7 947.09 432.9C926.83 421.2 900.28 415.35 873.72 415.35C847.17 415.35 820.62 421.2 800.36 432.9C781.67 443.69 771.63 457.57 770.17 471.7C771.62 485.84 781.66 499.74 800.36 510.52Z" fill="#FFAD02"></path><path d="M800.35 432.92C820.62 421.22 847.16 415.37 873.71 415.37C900.27 415.37 926.82 421.22 947.08 432.92C965.77 443.72 975.82 457.6 977.26 471.73C977.38 470.55 977.46 469.36 977.46 468.18C977.46 452.84 967.33 437.52 947.08 425.82C926.82 414.12 900.27 408.27 873.71 408.27C847.16 408.27 820.61 414.13 800.35 425.82C780.08 437.51 769.96 452.85 769.96 468.18C769.96 469.36 770.04 470.54 770.16 471.72C771.62 457.59 781.66 443.71 800.35 432.92Z" fill="#EF4E16"></path><path d="M924.83 452.94L934.65 447.27V440.17L924.83 445.84V452.94Z" fill="#EF4E16"></path><path d="M879.56 464.8C875.9 462.69 873.88 459.88 873.88 456.89C873.88 453.91 875.9 451.09 879.56 448.98C887.11 444.62 899.41 444.62 906.97 448.98C914.52 453.34 914.52 460.44 906.97 464.8L919.41 471.98C931.67 464.89 933.46 454.05 924.83 445.85L934.65 440.18L922.22 433L912.4 438.67C898.2 433.7 879.39 434.73 867.13 441.81C860.14 445.84 856.3 451.2 856.3 456.9C856.29 462.59 860.14 467.96 867.13 471.98C874.68 476.35 874.68 483.44 867.13 487.81C859.57 492.17 847.28 492.17 839.72 487.81C832.16 483.44 832.16 476.35 839.72 471.99L827.3 464.81C815.02 471.89 813.24 482.74 821.84 490.95L812.8 496.18L825.23 503.36L834.28 498.13C848.49 503.11 867.29 502.08 879.56 494.99C893.98 486.66 893.98 473.12 879.56 464.8Z" fill="#FFD03E"></path><path d="M812.81 503.26L825.24 510.45V503.34L812.81 496.16V503.26Z" fill="#FD9009"></path><path d="M825.24 510.45L834.29 505.21V498.12L825.24 503.34V510.45Z" fill="#EF4E16"></path><path d="M906.97 471.9L919.41 479.08V471.98L906.97 464.8V471.9Z" fill="#FD9009"></path><path d="M839.73 479.08V471.98C834.37 475.08 832.83 479.55 835.08 483.44C836 481.85 837.54 480.34 839.73 479.08Z" fill="#EF4E16"></path><path d="M816.51 479.53L816.53 487.52L816.55 487.51C816.63 489.41 817.15 491.28 818.09 493.11L821.85 490.94C818.19 487.46 816.44 483.5 816.54 479.56L816.51 479.53Z" fill="#FD9009"></path><path d="M867.13 479.07C869.32 480.34 870.86 481.84 871.78 483.43C874.02 479.54 872.49 475.07 867.13 471.97C860.15 467.94 856.3 462.58 856.3 456.89V463.99C856.3 469.69 860.15 475.05 867.13 479.07Z" fill="#FD9009"></path><path d="M890.37 479.85V479.7H890.36C890.36 479.76 890.37 479.8 890.37 479.85Z" fill="#FD9009"></path><path d="M930.16 456.88C930.17 462.34 926.61 467.82 919.41 471.98V479.08C926.8 474.81 930.35 469.18 930.15 463.57L930.18 463.6V456.87H930.16V456.88Z" fill="#EF4E16"></path><path d="M879.57 494.98C867.3 502.06 848.5 503.09 834.29 498.12V505.22C848.5 510.2 867.3 509.17 879.57 502.08C886.72 497.95 890.31 492.54 890.37 487.12L890.38 487.14V479.93C890.35 485.37 886.76 490.83 879.57 494.98Z" fill="url(#paint22_linear_phone)"></path><path d="M906.97 448.98C899.41 444.62 887.12 444.62 879.56 448.98C875.9 451.09 873.88 453.91 873.88 456.89C873.88 458.11 874.24 459.3 874.89 460.44C875.84 458.82 877.41 457.32 879.56 456.08C887.11 451.72 899.41 451.72 906.97 456.08C909.16 457.35 910.7 458.85 911.62 460.45C913.87 456.55 912.33 452.07 906.97 448.98Z" fill="#EF4E16"></path><g class="phone_send"><path d="M993.66 650.54L1158.78 555.21C1181.52 542.08 1218.38 542.08 1241.12 555.21C1263.86 568.34 1263.86 589.62 1241.12 602.74L1076 698.07C1053.27 711.2 1016.41 711.2 993.67 698.07C970.92 684.94 970.93 663.66 993.66 650.54Z" fill="url(#paint23_linear_phone)"></path><path opacity="0.85" d="M978.62 638.6L1140.62 545.07C1162.92 532.19 1199.26 532.5 1221.78 545.75C1244.3 559 1244.48 580.19 1222.18 593.06L1060.18 686.58C1037.88 699.46 1001.54 699.16 979.02 685.9C956.49 672.65 956.33 651.47 978.62 638.6Z" fill="#333366"></path><path d="M1226.54 600.96L1061.44 687.81C1038.72 699.77 1001.85 699.77 979.12 687.81C967.97 681.94 962.32 674.29 962.11 666.6L962.09 666.61V677.07C962.09 677.22 962.09 677.37 962.09 677.52V678.02L962.14 678.01C962.48 685.61 968.11 693.15 979.12 698.95C1001.86 710.91 1038.72 710.91 1061.44 698.95L1226.54 612.1C1237.73 606.21 1243.38 598.53 1243.55 590.81L1243.58 590.8V579.38H1243.57C1243.54 587.19 1237.87 595 1226.54 600.96Z" fill="url(#paint24_linear_phone)"></path><path d="M1079.98 637.18C1072.98 633.15 1065.24 634.19 1055.86 637.58L1053.36 638.49C1046.9 640.81 1042.23 642.23 1037.8 639.67C1034.07 637.52 1035.12 634.15 1039.78 631.46C1044.96 628.47 1051.38 627.59 1056.79 630.72L1058.54 631.73L1064.19 628.47L1062.04 627.23C1054.06 622.62 1043.16 623.66 1034.71 628.54C1026.96 633.01 1025.39 639.1 1032.21 643.04C1039.32 647.14 1046.89 646 1056.27 642.6L1058.83 641.72C1065.53 639.27 1070.43 638.25 1074.51 640.61C1078.41 642.86 1078.47 646.4 1072.7 649.73C1066 653.6 1058.66 653.67 1052.13 649.9L1050.96 649.23L1045.25 652.53L1046.65 653.34C1056.26 658.89 1067.69 658.49 1077.65 652.74C1086.04 647.88 1087.73 641.65 1079.98 637.18ZM1098.63 633.68L1085.93 626.35L1104.58 615.59L1099.33 612.56L1080.69 623.32L1068.22 616.12L1088.49 604.41L1083.31 601.42L1057.26 616.46L1098.05 640.01L1124.39 624.8L1119.2 621.8L1098.63 633.68ZM1113.96 583.72L1148.98 603.94L1148.27 604.34L1099.79 591.89L1089.65 597.74L1130.44 621.29L1136.21 617.96L1101.14 597.71L1101.84 597.31L1150.38 609.79L1160.51 603.94L1119.73 580.39L1113.96 583.72ZM1181.78 572.68L1173.86 568.1C1162.56 561.57 1151.49 562.05 1140.82 568.2L1127.65 575.8L1168.44 599.35L1181.61 591.75C1192.27 585.6 1193.09 579.21 1181.78 572.68ZM1176.42 588.76L1169.02 593.03L1138.61 575.47L1146.01 571.2C1153.65 566.79 1160.23 566.89 1167.8 571.27L1176.3 576.18C1183.88 580.55 1184.17 584.28 1176.42 588.76Z" fill="#FCBA06"></path></g><defs><linearGradient id="paint0_linear_phone" x1="514.49" y1="329.628" x2="1036.16" y2="1233.19" gradientUnits="userSpaceOnUse"><stop stop-color="white"></stop><stop offset="0.4487" stop-color="#F1F1F6"></stop></linearGradient><linearGradient id="paint1_linear_phone" x1="53.6851" y1="1053.22" x2="1615.58" y2="1053.22" gradientUnits="userSpaceOnUse"><stop stop-color="#C4CAE8"></stop><stop offset="0.3425" stop-color="#D5D9EF"></stop><stop offset="1" stop-color="white"></stop></linearGradient><linearGradient id="paint2_linear_phone" x1="0.314706" y1="1189.93" x2="1548.76" y2="1189.93" gradientUnits="userSpaceOnUse"><stop offset="0.2697" stop-color="#807CFB"></stop><stop offset="0.2974" stop-color="#7D79F7"></stop><stop offset="0.3241" stop-color="#736FEC"></stop><stop offset="0.3505" stop-color="#6460D8"></stop><stop offset="0.3765" stop-color="#4D49BD"></stop><stop offset="0.3876" stop-color="#423EAF"></stop></linearGradient><linearGradient id="paint3_linear_phone" x1="0.314706" y1="1189.93" x2="1548.76" y2="1189.93" gradientUnits="userSpaceOnUse"><stop offset="0.2697" stop-color="#807CFB"></stop><stop offset="0.2974" stop-color="#7D79F7"></stop><stop offset="0.3241" stop-color="#736FEC"></stop><stop offset="0.3505" stop-color="#6460D8"></stop><stop offset="0.3765" stop-color="#4D49BD"></stop><stop offset="0.3876" stop-color="#423EAF"></stop></linearGradient><linearGradient id="paint4_linear_phone" x1="797.369" y1="951.692" x2="1058.23" y2="951.692" gradientUnits="userSpaceOnUse"><stop offset="0.184" stop-color="#A3A9D0"></stop><stop offset="0.4748" stop-color="#C1C5DF"></stop><stop offset="1" stop-color="white"></stop></linearGradient><linearGradient id="paint5_linear_phone" x1="745.956" y1="972.305" x2="1001.48" y2="972.305" gradientUnits="userSpaceOnUse"><stop stop-color="#FD9009"></stop><stop offset="1" stop-color="#DD3B10"></stop></linearGradient><linearGradient id="paint6_linear_phone" x1="834.287" y1="943.16" x2="890.372" y2="943.16" gradientUnits="userSpaceOnUse"><stop stop-color="#FD9009"></stop><stop offset="1" stop-color="#DD3B10"></stop></linearGradient><linearGradient id="paint7_linear_phone" x1="745.956" y1="729.118" x2="1001.48" y2="729.118" gradientUnits="userSpaceOnUse"><stop stop-color="#FFF1B5"></stop><stop offset="0.0689" stop-color="#FFF5CC"></stop><stop offset="0.1569" stop-color="#FFFAE3"></stop><stop offset="0.2526" stop-color="#FFFDF3"></stop><stop offset="0.3609" stop-color="#FFFEFC"></stop><stop offset="0.5085" stop-color="white"></stop><stop offset="0.6401" stop-color="#FFFEFC"></stop><stop offset="0.7477" stop-color="#FFFCF2"></stop><stop offset="0.8468" stop-color="#FFF9E1"></stop><stop offset="0.9402" stop-color="#FFF5C9"></stop><stop offset="1" stop-color="#FFF1B5"></stop></linearGradient><linearGradient id="paint8_linear_phone" x1="1549.55" y1="623.511" x2="1.10065" y2="623.511" gradientUnits="userSpaceOnUse"><stop offset="0.2697" stop-color="#807CFB"></stop><stop offset="0.2974" stop-color="#7D79F7"></stop><stop offset="0.3241" stop-color="#736FEC"></stop><stop offset="0.3505" stop-color="#6460D8"></stop><stop offset="0.3765" stop-color="#4D49BD"></stop><stop offset="0.3876" stop-color="#423EAF"></stop></linearGradient><linearGradient id="paint9_linear_phone" x1="1549.55" y1="623.511" x2="1.10065" y2="623.511" gradientUnits="userSpaceOnUse"><stop offset="0.2697" stop-color="#423EAF"></stop><stop offset="0.2974" stop-color="#4541B3"></stop><stop offset="0.3241" stop-color="#4F4BBE"></stop><stop offset="0.3505" stop-color="#5E5AD2"></stop><stop offset="0.3765" stop-color="#7571ED"></stop><stop offset="0.3876" stop-color="#807CFB"></stop></linearGradient><linearGradient id="paint10_linear_phone" x1="745.956" y1="755.987" x2="1001.48" y2="755.987" gradientUnits="userSpaceOnUse"><stop stop-color="#FD9009"></stop><stop offset="1" stop-color="#DD3B10"></stop></linearGradient><linearGradient id="paint11_linear_phone" x1="834.287" y1="726.842" x2="890.372" y2="726.842" gradientUnits="userSpaceOnUse"><stop stop-color="#FD9009"></stop><stop offset="1" stop-color="#DD3B10"></stop></linearGradient><linearGradient id="paint12_linear_phone" x1="745.956" y1="729.109" x2="1001.47" y2="729.109" gradientUnits="userSpaceOnUse"><stop stop-color="#FFF1B5"></stop><stop offset="0.0689" stop-color="#FFF5CC"></stop><stop offset="0.1569" stop-color="#FFFAE3"></stop><stop offset="0.2526" stop-color="#FFFDF3"></stop><stop offset="0.3609" stop-color="#FFFEFC"></stop><stop offset="0.5085" stop-color="white"></stop><stop offset="0.6401" stop-color="#FFFEFC"></stop><stop offset="0.7477" stop-color="#FFFCF2"></stop><stop offset="0.8468" stop-color="#FFF9E1"></stop><stop offset="0.9402" stop-color="#FFF5C9"></stop><stop offset="1" stop-color="#FFF1B5"></stop></linearGradient><linearGradient id="paint13_linear_phone" x1="62.8213" y1="237.804" x2="995.463" y2="237.804" gradientUnits="userSpaceOnUse"><stop offset="0.00561798" stop-color="#5652CC"></stop><stop offset="0.1203" stop-color="#4F4CBC"></stop><stop offset="0.3428" stop-color="#3E3B94"></stop><stop offset="0.6509" stop-color="#232152"></stop><stop offset="1"></stop></linearGradient><linearGradient id="paint14_linear_phone" x1="797.369" y1="502.649" x2="1058.23" y2="502.649" gradientUnits="userSpaceOnUse"><stop offset="0.184" stop-color="#A3A9D0"></stop><stop offset="0.4748" stop-color="#C1C5DF"></stop><stop offset="1" stop-color="white"></stop></linearGradient><linearGradient id="paint15_linear_phone" x1="1347.39" y1="1105.73" x2="1545.8" y2="1105.73" gradientUnits="userSpaceOnUse"><stop offset="0.4525" stop-color="#C4C9E4"></stop><stop offset="1" stop-color="white"></stop></linearGradient><linearGradient id="paint16_linear_phone" x1="1295.1" y1="1053.79" x2="1490.38" y2="1053.79" gradientUnits="userSpaceOnUse"><stop stop-color="#A3A9D0"></stop><stop offset="1" stop-color="#CED3F8"></stop></linearGradient><linearGradient id="paint17_linear_phone" x1="1469.44" y1="1165.42" x2="1272.58" y2="1038.3" gradientUnits="userSpaceOnUse"><stop stop-color="#A3A9D0"></stop><stop offset="1" stop-color="#CED3F8"></stop></linearGradient><linearGradient id="paint18_linear_phone" x1="1355.07" y1="1096.16" x2="1409.17" y2="1096.16" gradientUnits="userSpaceOnUse"><stop stop-color="#CED3F8"></stop><stop offset="1" stop-color="#A3A9D0"></stop></linearGradient><linearGradient id="paint19_linear_phone" x1="12.4182" y1="542.992" x2="586.573" y2="542.992" gradientUnits="userSpaceOnUse"><stop offset="0.2528" stop-color="#FFAD02"></stop><stop offset="0.3479" stop-color="#FD8908"></stop><stop offset="0.405" stop-color="#FC780B"></stop></linearGradient><linearGradient id="paint20_linear_phone" x1="592.966" y1="1390.01" x2="1167.12" y2="1390.01" gradientUnits="userSpaceOnUse"><stop offset="0.603" stop-color="#5652CC"></stop><stop offset="0.6829" stop-color="#4039A5"></stop><stop offset="0.7274" stop-color="#362E94"></stop></linearGradient><linearGradient id="paint21_linear_phone" x1="745.956" y1="523.258" x2="1001.48" y2="523.258" gradientUnits="userSpaceOnUse"><stop stop-color="#FD9009"></stop><stop offset="1" stop-color="#DD3B10"></stop></linearGradient><linearGradient id="paint22_linear_phone" x1="834.287" y1="494.114" x2="890.372" y2="494.114" gradientUnits="userSpaceOnUse"><stop stop-color="#FD9009"></stop><stop offset="1" stop-color="#DD3B10"></stop></linearGradient><linearGradient id="paint23_linear_phone" x1="976.611" y1="626.638" x2="1258.17" y2="626.638" gradientUnits="userSpaceOnUse"><stop stop-color="#C4CAE9"></stop><stop offset="1" stop-color="#DAE0F5"></stop></linearGradient><linearGradient id="paint24_linear_phone" x1="962.078" y1="643.646" x2="1243.58" y2="643.646" gradientUnits="userSpaceOnUse"><stop stop-color="#5652CC"></stop><stop offset="0.3891" stop-color="#362E94"></stop></linearGradient></defs></svg> 